<svg width="48" height="48" viewBox="0 0 48 48" fill="none" xmlns="http://www.w3.org/2000/svg">
<circle cx="23.7864" cy="23.8094" r="23.7864" fill="#EEA91D"/>
<g clip-path="url(#clip0_324_917)">
<path fill-rule="evenodd" clip-rule="evenodd" d="M23.8049 8.94285C20.8656 8.93795 17.9908 9.80445 15.5439 11.4328C13.0969 13.0612 11.1876 15.3783 10.0571 18.0915C8.92666 20.8047 8.62582 23.7921 9.19261 26.6761C9.75941 29.5602 11.1684 32.2116 13.2416 34.2952C15.3147 36.3787 17.959 37.801 20.8402 38.3822C23.7214 38.9635 26.7102 38.6776 29.429 37.5608C32.1478 36.4439 34.4745 34.5462 36.1151 32.1074C37.7557 29.6687 38.6366 26.7983 38.6465 23.8591C38.6465 19.9159 37.0852 16.1332 34.304 13.338C31.5228 10.5428 27.7479 8.96256 23.8049 8.94285Z" fill="white"/>
<path fill-rule="evenodd" clip-rule="evenodd" d="M23.8051 37.1718C21.1587 37.1767 18.5703 36.396 16.3679 34.9287C14.1655 33.4613 12.4481 31.3733 11.4334 28.9291C10.4187 26.485 10.1522 23.7946 10.6677 21.1989C11.1833 18.6031 12.4577 16.2188 14.3294 14.3479C16.2012 12.477 18.5861 11.2037 21.1821 10.6894C23.7781 10.1751 26.4683 10.4428 28.912 11.4587C31.3557 12.4746 33.443 14.1929 34.9093 16.3959C36.3756 18.599 37.155 21.1878 37.1489 23.8342C37.139 27.3696 35.7298 30.7573 33.2293 33.2566C30.7288 35.7559 27.3405 37.1636 23.8051 37.1718Z" fill="#EEA91D"/>
<path fill-rule="evenodd" clip-rule="evenodd" d="M32.9033 23.2314C32.9033 23.3638 32.9555 23.4909 33.0486 23.5852C33.1416 23.6794 33.2681 23.7332 33.4006 23.7348H36.0482C36.1806 23.7332 36.3071 23.6794 36.4001 23.5852C36.4932 23.4909 36.5454 23.3638 36.5454 23.2314C36.5439 23.1688 36.5296 23.1071 36.5035 23.0502C36.4773 22.9933 36.4398 22.9423 36.3932 22.9004C36.3467 22.8585 36.2921 22.8266 36.2327 22.8065C36.1734 22.7865 36.1106 22.7788 36.0482 22.7839H33.4006C33.3381 22.7788 33.2753 22.7865 33.216 22.8065C33.1566 22.8266 33.102 22.8585 33.0554 22.9004C33.0089 22.9423 32.9714 22.9933 32.9452 23.0502C32.9191 23.1071 32.9048 23.1688 32.9033 23.2314Z" fill="white"/>
<path fill-rule="evenodd" clip-rule="evenodd" d="M23.8049 14.667C23.8716 14.6715 23.9385 14.6618 24.0012 14.6384C24.0639 14.6151 24.121 14.5788 24.1686 14.5318C24.2162 14.4848 24.2532 14.4282 24.2773 14.3658C24.3014 14.3034 24.3119 14.2366 24.3083 14.1698V11.5594C24.3066 11.427 24.2529 11.3005 24.1586 11.2075C24.0644 11.1144 23.9373 11.0622 23.8049 11.0622C23.6759 11.071 23.5544 11.1261 23.463 11.2176C23.3715 11.309 23.3163 11.4304 23.3076 11.5594V14.2071C23.3076 14.3389 23.36 14.4654 23.4532 14.5586C23.5465 14.6519 23.673 14.7043 23.8049 14.7043V14.667Z" fill="white"/>
<path fill-rule="evenodd" clip-rule="evenodd" d="M23.8049 32.9269C23.6759 32.9356 23.5544 32.9908 23.463 33.0822C23.3715 33.1737 23.3163 33.2951 23.3076 33.4241V36.0717C23.3149 36.2018 23.3695 36.3248 23.461 36.4175C23.5526 36.5102 23.6749 36.5663 23.8049 36.5751C23.9384 36.5751 24.0664 36.5221 24.1608 36.4277C24.2552 36.3333 24.3083 36.2052 24.3083 36.0717V33.4241C24.3066 33.2917 24.2529 33.1652 24.1586 33.0721C24.0644 32.9791 23.9373 32.9269 23.8049 32.9269Z" fill="white"/>
<path fill-rule="evenodd" clip-rule="evenodd" d="M14.8122 17.9859C14.8122 18.1507 14.7467 18.3088 14.6302 18.4253C14.5136 18.5419 14.3555 18.6074 14.1907 18.6074C14.1125 18.606 14.0355 18.5885 13.9644 18.5559C13.8934 18.5233 13.8298 18.4762 13.7779 18.4178C13.7259 18.3594 13.6866 18.2909 13.6624 18.2166C13.6383 18.1422 13.6298 18.0637 13.6375 17.9859C13.6392 17.8397 13.698 17.6999 13.8013 17.5965C13.9047 17.4931 14.0445 17.4343 14.1907 17.4327C14.3443 17.4318 14.4929 17.4878 14.6077 17.5899C14.7224 17.6921 14.7953 17.8331 14.8122 17.9859Z" fill="white"/>
<path fill-rule="evenodd" clip-rule="evenodd" d="M34.551 17.9858C34.5587 18.0631 34.5504 18.1412 34.5266 18.2151C34.5029 18.2891 34.4641 18.3573 34.4128 18.4156C34.3615 18.4739 34.2987 18.521 34.2284 18.554C34.1581 18.587 34.0817 18.6052 34.0041 18.6073C33.9236 18.6157 33.8422 18.6071 33.7652 18.582C33.6882 18.5569 33.6174 18.516 33.5572 18.4618C33.4971 18.4076 33.449 18.3413 33.4161 18.2674C33.3832 18.1934 33.3662 18.1134 33.3662 18.0324C33.3662 17.9515 33.3832 17.8714 33.4161 17.7975C33.449 17.7235 33.4971 17.6573 33.5572 17.6031C33.6174 17.5489 33.6882 17.5079 33.7652 17.4828C33.8422 17.4578 33.9236 17.4492 34.0041 17.4575C34.1492 17.4608 34.2874 17.5202 34.3894 17.6235C34.4915 17.7267 34.5494 17.8655 34.551 18.0107V17.9858Z" fill="white"/>
<path fill-rule="evenodd" clip-rule="evenodd" d="M18.5594 13.4923C18.5411 13.6439 18.4676 13.7834 18.353 13.8843C18.2384 13.9852 18.0906 14.0403 17.9379 14.0392C17.8606 14.047 17.7825 14.0387 17.7086 14.0149C17.6347 13.9911 17.5664 13.9524 17.5081 13.901C17.4498 13.8497 17.4027 13.787 17.3697 13.7167C17.3367 13.6463 17.3186 13.57 17.3164 13.4923C17.3164 13.3275 17.3819 13.1694 17.4984 13.0528C17.615 12.9363 17.7731 12.8708 17.9379 12.8708C18.1027 12.8708 18.2608 12.9363 18.3774 13.0528C18.4939 13.1694 18.5594 13.3275 18.5594 13.4923Z" fill="white"/>
<path fill-rule="evenodd" clip-rule="evenodd" d="M30.2374 13.4923C30.2374 13.6374 30.1798 13.7765 30.0772 13.879C29.9747 13.9816 29.8355 14.0392 29.6905 14.0392C29.5454 14.0392 29.4063 13.9816 29.3037 13.879C29.2012 13.7765 29.1436 13.6374 29.1436 13.4923C29.1436 13.3473 29.2012 13.2081 29.3037 13.1056C29.4063 13.003 29.5454 12.9454 29.6905 12.9454C29.8355 12.9454 29.9747 13.003 30.0772 13.1056C30.1798 13.2081 30.2374 13.3473 30.2374 13.4923Z" fill="white"/>
<path fill-rule="evenodd" clip-rule="evenodd" d="M14.8123 29.6267C14.8191 29.7038 14.8102 29.7815 14.7861 29.855C14.7619 29.9286 14.7231 29.9965 14.672 30.0546C14.6209 30.1127 14.5584 30.1598 14.4885 30.1931C14.4187 30.2264 14.3427 30.2451 14.2654 30.2482C14.1821 30.2547 14.0984 30.2431 14.02 30.2142C13.9416 30.1853 13.8705 30.1397 13.8114 30.0807C13.7523 30.0216 13.7067 29.9504 13.6778 29.872C13.6489 29.7937 13.6373 29.71 13.6439 29.6267C13.646 29.549 13.6642 29.4727 13.6972 29.4023C13.7301 29.332 13.7773 29.2692 13.8356 29.2179C13.8939 29.1666 13.9622 29.1279 14.0361 29.1041C14.11 29.0803 14.1881 29.072 14.2654 29.0797C14.4099 29.0814 14.5481 29.1395 14.6503 29.2417C14.7525 29.3439 14.8107 29.4821 14.8123 29.6267Z" fill="white"/>
<path fill-rule="evenodd" clip-rule="evenodd" d="M34.5885 29.6267C34.5954 29.7043 34.5862 29.7825 34.5617 29.8564C34.5372 29.9304 34.4979 29.9986 34.4461 30.0568C34.3943 30.115 34.3311 30.162 34.2605 30.1949C34.1899 30.2278 34.1133 30.2459 34.0354 30.2482C33.9521 30.2547 33.8684 30.2431 33.79 30.2142C33.7117 30.1853 33.6405 30.1397 33.5814 30.0807C33.5223 30.0216 33.4768 29.9504 33.4479 29.872C33.419 29.7937 33.4073 29.71 33.4139 29.6267C33.4161 29.549 33.4342 29.4727 33.4672 29.4023C33.5002 29.332 33.5473 29.2692 33.6056 29.2179C33.6639 29.1666 33.7322 29.1279 33.8061 29.1041C33.8801 29.0803 33.9581 29.072 34.0354 29.0797C34.181 29.0797 34.3208 29.1372 34.4244 29.2396C34.5279 29.342 34.5869 29.481 34.5885 29.6267Z" fill="white"/>
<path fill-rule="evenodd" clip-rule="evenodd" d="M18.56 34.1761C18.5584 34.3207 18.5003 34.4589 18.3981 34.5611C18.2958 34.6633 18.1577 34.7215 18.0131 34.7231C17.8604 34.7242 17.7127 34.669 17.598 34.5681C17.4834 34.4673 17.4099 34.3277 17.3916 34.1761C17.3916 34.0113 17.4571 33.8532 17.5736 33.7367C17.6902 33.6201 17.8483 33.5546 18.0131 33.5546C18.1647 33.5729 18.3042 33.6464 18.4051 33.7611C18.506 33.8757 18.5611 34.0234 18.56 34.1761Z" fill="white"/>
<path fill-rule="evenodd" clip-rule="evenodd" d="M30.3495 34.1761C30.3482 34.2541 30.3307 34.3309 30.298 34.4017C30.2653 34.4724 30.2182 34.5356 30.1597 34.5871C30.1012 34.6386 30.0326 34.6773 29.9582 34.7007C29.8839 34.7241 29.8054 34.7317 29.728 34.7231C29.5753 34.7242 29.4275 34.669 29.3129 34.5681C29.1983 34.4673 29.1248 34.3277 29.1064 34.1761C29.1064 34.0113 29.1719 33.8532 29.2885 33.7367C29.405 33.6201 29.5631 33.5546 29.728 33.5546C29.8928 33.5546 30.0509 33.6201 30.1674 33.7367C30.284 33.8532 30.3495 34.0113 30.3495 34.1761Z" fill="white"/>
<path fill-rule="evenodd" clip-rule="evenodd" d="M31.102 31.5782C31.0081 31.6687 30.8843 31.7218 30.754 31.7274C30.6051 31.7315 30.4604 31.6781 30.35 31.5782L23.6066 24.4309H23.358C23.2302 24.4392 23.1021 24.4214 22.9813 24.3787C22.8606 24.336 22.7498 24.2691 22.6557 24.1822C22.5488 24.0918 22.4612 23.9807 22.3981 23.8557C22.335 23.7306 22.2977 23.5942 22.2884 23.4544C22.2791 23.3147 22.2981 23.1745 22.3441 23.0422C22.3901 22.9099 22.4623 22.7883 22.5563 22.6844L27.2549 17.2835C27.4603 17.084 27.7328 16.9683 28.019 16.9591C28.3052 16.9499 28.5846 17.0479 28.8024 17.2338C29.0044 17.429 29.1225 17.695 29.1318 17.9757C29.1411 18.2564 29.0408 18.5298 28.8522 18.7378L24.4581 23.7845L31.1517 30.8262C31.24 30.9346 31.284 31.0724 31.2748 31.212C31.2655 31.3515 31.2038 31.4824 31.102 31.5782Z" fill="white"/>
<path fill-rule="evenodd" clip-rule="evenodd" d="M14.6629 23.2314C14.6629 22.933 14.464 22.7839 14.1657 22.7839H11.5181C11.4552 22.7779 11.3917 22.7849 11.3316 22.8045C11.2715 22.8242 11.2161 22.856 11.1689 22.898C11.1216 22.94 11.0836 22.9912 11.057 23.0486C11.0305 23.106 11.0161 23.1682 11.0146 23.2314C11.0146 23.3649 11.0677 23.4929 11.1621 23.5873C11.2565 23.6817 11.3846 23.7348 11.5181 23.7348H14.1657C14.2325 23.7385 14.2993 23.7279 14.3617 23.7038C14.4241 23.6797 14.4807 23.6426 14.5277 23.595C14.5747 23.5474 14.6111 23.4904 14.6344 23.4277C14.6577 23.365 14.6674 23.2981 14.6629 23.2314Z" fill="white"/>
</g>
<defs>
<clipPath id="clip0_324_917">
<rect width="29.733" height="29.733" fill="white" transform="translate(8.91992 8.94288)"/>
</clipPath>
</defs>
</svg>
