<svg width="74" height="65" viewBox="0 0 74 65" fill="none" xmlns="http://www.w3.org/2000/svg">
<g clip-path="url(#clip0_299_4373)">
<path d="M72.297 29.2902H74L70.0086 11.3496H57.2229V13.0633H68.6249L71.8846 27.5634H58.0478V23.4374H61.7864L54.9079 16.9388V5.80004H47.5106V9.87325L37.0665 0L25.0924 11.3496H4.04459L0.0532227 29.2902H1.76948V62.7722H16.0187V65H58.1011V62.7722H72.3502L72.297 29.2902ZM70.5674 29.2902V56.9722H58.0478V29.2902H70.5674ZM49.1737 7.51368H53.165V15.2778L49.1737 11.5078V7.51368ZM57.4624 21.6974H16.5375L37 2.34638L57.4624 21.6974ZM5.42824 13.0633H23.1766L12.2269 23.4374H15.9654V27.6029H2.15529L5.42824 13.0633ZM15.9654 29.2902V56.9722H3.44587V29.2902H15.9654ZM3.44587 61.0586V58.6331H15.9654V61.0586H3.44587ZM41.0978 63.2864H32.8756V51.2513H41.0579L41.0978 63.2864ZM42.8274 63.2864V49.5376H31.1859V63.2864H17.6951V23.4374H56.2783V63.2864H42.8274ZM58.0478 61.0586V58.6331H70.5674V61.0586H58.0478Z" fill="#191716"/>
<path d="M22.5911 34.1675H29.2433V27.5765H22.5911V34.1675ZM24.3206 29.2902H27.5536V32.4538H24.3605L24.3206 29.2902Z" fill="#191716"/>
<path d="M33.6738 34.1675H40.3261V27.5765H33.6738V34.1675ZM35.4035 29.2902H38.6099V32.4538H35.4035V29.2902Z" fill="#191716"/>
<path d="M51.4221 27.5765H44.7698V34.1675H51.4221V27.5765ZM49.6925 32.4538H46.486V29.2902H49.6925V32.4538Z" fill="#191716"/>
<path d="M22.5911 45.4512H29.2433V38.8603H22.5911V45.4512ZM24.3206 40.5608H27.5536V43.7376H24.3605L24.3206 40.5608Z" fill="#191716"/>
<path d="M33.6738 45.4512H40.3261V38.8603H33.6738V45.4512ZM35.4035 40.5739H38.6099V43.7376H35.4035V40.5739Z" fill="#191716"/>
<path d="M51.4221 38.8471H44.7698V45.4381H51.4221V38.8471ZM49.6925 43.7376H46.486V40.5739H49.6925V43.7376Z" fill="#191716"/>
<path d="M46.0603 59.3977H52.7126V52.8068H46.0603V59.3977ZM47.79 54.5204H50.9963V57.7104H47.79V54.5204Z" fill="#191716"/>
<path d="M21.2874 59.3977H27.9396V52.8068H21.2874V59.3977ZM23.017 54.5204H26.2234V57.7104H23.0302L23.017 54.5204Z" fill="#191716"/>
<path d="M67.6403 32.5857H60.988V39.1766H67.6403V32.5857ZM65.9107 37.463H62.7043V34.2993H65.9107V37.463Z" fill="#191716"/>
<path d="M67.6403 50.5263V43.9353H60.988V50.5263H67.6403ZM62.7043 45.6358H65.9107V48.8126H62.7043V45.6358Z" fill="#191716"/>
<path d="M13.0251 32.5857H6.3728V39.1766H13.0251V32.5857ZM11.2955 37.463H8.10238V34.2993H11.2955V37.463Z" fill="#191716"/>
<path d="M13.0251 50.5263V43.9353H6.3728V50.5263H13.0251ZM8.10238 45.6358H11.2955V48.8126H8.10238V45.6358Z" fill="#191716"/>
</g>
<defs>
<clipPath id="clip0_299_4373">
<rect width="74" height="65" fill="white"/>
</clipPath>
</defs>
</svg>
