<svg width="80" height="80" viewBox="0 0 80 80" fill="none" xmlns="http://www.w3.org/2000/svg">
<circle cx="40" cy="40" r="39" stroke="#EEA91D" stroke-width="2"/>
<path d="M20 21.2188C20 20.8955 20.1284 20.5855 20.357 20.357C20.5855 20.1284 20.8955 20 21.2188 20H57.7812C58.1045 20 58.4145 20.1284 58.643 20.357C58.8716 20.5855 59 20.8955 59 21.2188V28.5312C59 28.8545 58.8716 29.1645 58.643 29.393C58.4145 29.6216 58.1045 29.75 57.7812 29.75H54.125V34.625H57.7812C58.1045 34.625 58.4145 34.7534 58.643 34.982C58.8716 35.2105 59 35.5205 59 35.8438V43.1562C59 43.4795 58.8716 43.7895 58.643 44.018C58.4145 44.2466 58.1045 44.375 57.7812 44.375H54.125V49.25H57.7812C58.1045 49.25 58.4145 49.3784 58.643 49.607C58.8716 49.8355 59 50.1455 59 50.4688V57.7812C59 58.1045 58.8716 58.4145 58.643 58.643C58.4145 58.8716 58.1045 59 57.7812 59H21.2188C20.8955 59 20.5855 58.8716 20.357 58.643C20.1284 58.4145 20 58.1045 20 57.7812V50.4688C20 50.1455 20.1284 49.8355 20.357 49.607C20.5855 49.3784 20.8955 49.25 21.2188 49.25H24.875V44.375H21.2188C20.8955 44.375 20.5855 44.2466 20.357 44.018C20.1284 43.7895 20 43.4795 20 43.1562V35.8438C20 35.5205 20.1284 35.2105 20.357 34.982C20.5855 34.7534 20.8955 34.625 21.2188 34.625H24.875V29.75H21.2188C20.8955 29.75 20.5855 29.6216 20.357 29.393C20.1284 29.1645 20 28.8545 20 28.5312V21.2188ZM27.3125 29.75V34.625H38.2812V29.75H27.3125ZM40.7188 29.75V34.625H51.6875V29.75H40.7188ZM27.3125 44.375V49.25H38.2812V44.375H27.3125ZM40.7188 44.375V49.25H51.6875V44.375H40.7188ZM22.4375 22.4375V27.3125H30.9688V22.4375H22.4375ZM33.4062 22.4375V27.3125H45.5938V22.4375H33.4062ZM48.0312 22.4375V27.3125H56.5625V22.4375H48.0312ZM22.4375 37.0625V41.9375H30.9688V37.0625H22.4375ZM33.4062 37.0625V41.9375H45.5938V37.0625H33.4062ZM48.0312 37.0625V41.9375H56.5625V37.0625H48.0312ZM22.4375 51.6875V56.5625H30.9688V51.6875H22.4375ZM33.4062 51.6875V56.5625H45.5938V51.6875H33.4062ZM48.0312 51.6875V56.5625H56.5625V51.6875H48.0312Z" fill="#EEA91D"/>
</svg>
