<svg width="34" height="34" viewBox="0 0 34 34" fill="none" xmlns="http://www.w3.org/2000/svg">
<g clip-path="url(#clip0_42_1520)">
<path d="M30.5339 5.66669C30.4052 5.65342 30.2754 5.65342 30.1467 5.66669H3.70222C3.53273 5.6693 3.36437 5.69471 3.20166 5.74224L16.8489 19.3328L30.5339 5.66669Z" fill="#181614"/>
<path d="M31.9316 6.97925L18.1805 20.6737C17.8266 21.0255 17.3479 21.223 16.8489 21.223C16.3498 21.223 15.8711 21.0255 15.5172 20.6737L1.88887 7.08314C1.84697 7.23712 1.82475 7.39579 1.82275 7.55536V26.4442C1.82275 26.9452 2.02176 27.4257 2.376 27.7799C2.73023 28.1341 3.21068 28.3331 3.71164 28.3331H30.1561C30.6571 28.3331 31.1375 28.1341 31.4917 27.7799C31.846 27.4257 32.045 26.9452 32.045 26.4442V7.55536C32.0375 7.35859 31.9992 7.1642 31.9316 6.97925ZM5.00553 26.4442H3.69275V25.0937L10.5589 18.2842L11.8905 19.6159L5.00553 26.4442ZM30.1372 26.4442H28.815L21.93 19.6159L23.2616 18.2842L30.1278 25.0937L30.1372 26.4442Z" fill="#181614"/>
</g>
<defs>
<clipPath id="clip0_42_1520">
<rect width="34" height="34" fill="white"/>
</clipPath>
</defs>
</svg>
