<svg width="23" height="20" viewBox="0 0 23 20" fill="none" xmlns="http://www.w3.org/2000/svg">
<path d="M21.6562 0.375H1.34375C0.911621 0.375 0.5625 0.766016 0.5625 1.25V18.75C0.5625 19.234 0.911621 19.625 1.34375 19.625H21.6562C22.0884 19.625 22.4375 19.234 22.4375 18.75V1.25C22.4375 0.766016 22.0884 0.375 21.6562 0.375ZM20.6797 3.40469V17.6562H2.32031V3.40469L1.64648 2.8168L2.60596 1.43594L3.65088 2.34648H19.3516L20.3965 1.43594L21.356 2.8168L20.6797 3.40469ZM19.3516 2.34375L11.5 9.17969L3.64844 2.34375L2.60352 1.4332L1.64404 2.81406L2.31787 3.40195L10.6577 10.6645C10.8976 10.8731 11.1926 10.9864 11.4963 10.9864C11.8001 10.9864 12.0951 10.8731 12.335 10.6645L20.6797 3.40469L21.3535 2.8168L20.394 1.43594L19.3516 2.34375Z" fill="white"/>
</svg>
