<svg width="48" height="48" viewBox="0 0 48 48" fill="none" xmlns="http://www.w3.org/2000/svg">
<circle cx="23.7864" cy="24.1053" r="23.7864" fill="#EEA91D"/>
<g clip-path="url(#clip0_324_935)">
<path d="M33.8361 12.9555H13.7664C13.2305 12.9555 12.6998 13.061 12.2047 13.2661C11.7096 13.4712 11.2598 13.7718 10.8808 14.1507C10.5019 14.5297 10.2013 14.9795 9.99619 15.4746C9.79111 15.9698 9.68555 16.5004 9.68555 17.0363V31.0703C9.68555 31.6062 9.79111 32.1369 9.99619 32.632C10.2013 33.1271 10.5019 33.5769 10.8808 33.9559C11.2598 34.3348 11.7096 34.6354 12.2047 34.8405C12.6998 35.0456 13.2305 35.1511 13.7664 35.1511H33.8361C34.9178 35.1492 35.9547 34.7186 36.7196 33.9537C37.4844 33.1888 37.915 32.152 37.917 31.0703V17.0363C37.915 15.9546 37.4844 14.9178 36.7196 14.1529C35.9547 13.388 34.9178 12.9574 33.8361 12.9555V12.9555ZM33.8361 14.903C33.999 14.904 34.1611 14.9239 34.3193 14.9625L25.8603 24.5811C25.6036 24.8734 25.2875 25.1075 24.933 25.268C24.5786 25.4284 24.194 25.5114 23.805 25.5114C23.4159 25.5114 23.0314 25.4284 22.677 25.268C22.3226 25.1075 22.0064 24.8734 21.7497 24.5811L13.2758 14.9625C13.4339 14.9235 13.5961 14.9035 13.759 14.903H33.8361ZM35.9621 31.0703C35.9621 31.6341 35.7381 32.1748 35.3394 32.5735C34.9407 32.9722 34.4 33.1962 33.8361 33.1962H13.7664C13.2019 33.1962 12.6604 32.9725 12.2605 32.574C11.8607 32.1755 11.635 31.6348 11.6331 31.0703V17.0363C11.6334 16.7581 11.689 16.4827 11.7966 16.2261L20.2928 25.8893C20.7336 26.3867 21.2749 26.7849 21.881 27.0577C22.4871 27.3304 23.1441 27.4714 23.8087 27.4714C24.4733 27.4714 25.1304 27.3304 25.7365 27.0577C26.3426 26.7849 26.8838 26.3867 27.3246 25.8893L35.8282 16.2261C35.9334 16.4832 35.9865 16.7586 35.9844 17.0363L35.9621 31.0703Z" fill="white"/>
</g>
<defs>
<clipPath id="clip0_324_935">
<rect width="28.2463" height="22.1882" fill="white" transform="translate(9.66309 12.9555)"/>
</clipPath>
</defs>
</svg>
