<svg width="67" height="66" viewBox="0 0 67 66" fill="none" xmlns="http://www.w3.org/2000/svg">
<g clip-path="url(#clip0_298_4329)">
<path d="M12.1157 42.2587L11.0011 41.1539L7.41484 44.7085L6.49404 43.7959L5.37939 44.9007L7.41484 46.9181L12.1157 42.2587Z" fill="#232323"/>
<path d="M21.6992 42.3068H15.084V43.8679H21.6992V42.3068Z" fill="#232323"/>
<path d="M21.6993 47.2303H10.8921V48.7915H21.6993V47.2303Z" fill="#232323"/>
<path d="M21.6992 52.1539H5.27026V53.7151H21.6992V52.1539Z" fill="#232323"/>
<path d="M21.6992 57.0895H5.27026V58.6507H21.6992V57.0895Z" fill="#232323"/>
<path d="M45.1917 12.5851C45.1688 12.4849 45.1262 12.3901 45.0663 12.3062C45.0064 12.2224 44.9303 12.151 44.8425 12.0964C44.7547 12.0417 44.6568 12.0047 44.5546 11.9876C44.4523 11.9705 44.3477 11.9736 44.2467 11.9967C39.0318 13.1816 33.6141 13.1816 28.3993 11.9967C28.2983 11.9736 28.1936 11.9705 28.0914 11.9876C27.9891 12.0047 27.8913 12.0417 27.8035 12.0964C27.7157 12.151 27.6396 12.2224 27.5797 12.3062C27.5198 12.3901 27.4771 12.4849 27.4542 12.5851C27.4109 12.7888 27.4501 13.0013 27.5635 13.1765C27.6768 13.3518 27.8552 13.4758 28.06 13.5218C33.4984 14.7546 39.1475 14.7546 44.5859 13.5218C44.7892 13.4731 44.9656 13.3485 45.0785 13.174C45.1913 12.9995 45.2319 12.7885 45.1917 12.5851Z" fill="#232323"/>
<path d="M59.9123 42.8712L46.9485 35.9661C46.3544 35.6448 45.8586 35.1707 45.5133 34.5939C45.1679 34.017 44.9856 33.3585 44.9857 32.6877V28.5688C46.1494 26.9592 46.9735 25.1335 47.4088 23.2009C48.1094 23.1426 48.7599 22.8171 49.2232 22.2929C49.6864 21.7688 49.9264 21.0869 49.8926 20.3908V19.274C49.9014 18.7434 49.761 18.2208 49.4871 17.7647C49.2132 17.3087 48.8166 16.9374 48.3418 16.6921C48.3418 16.2358 48.2812 15.7675 48.2206 15.2991C49.0765 15.0351 49.9176 14.7264 50.7407 14.3744L51.3707 14.0982L50.1591 10.0153L48.7173 10.4716C47.3716 6.90662 44.6893 3.9942 41.2298 2.34169C41.1898 1.71771 40.9217 1.12959 40.4756 0.687482C40.0296 0.24537 39.4362 -0.0204132 38.8067 -0.0600586H34.0573C33.4278 -0.0204132 32.8344 0.24537 32.3884 0.687482C31.9423 1.12959 31.6742 1.71771 31.6342 2.34169C28.1777 3.99464 25.4994 6.90744 24.1588 10.4716L22.7049 10.0153L21.4933 14.0982L22.1354 14.3744C22.9601 14.7326 23.8056 15.0414 24.6676 15.2991C24.5998 15.761 24.5553 16.2259 24.5344 16.6921C24.0554 16.9335 23.6547 17.3037 23.3783 17.7603C23.1019 18.217 22.9609 18.7416 22.9714 19.274V20.3908C22.9376 21.0869 23.1775 21.7688 23.6408 22.2929C24.1041 22.8171 24.7545 23.1426 25.4551 23.2009C25.8923 25.1365 26.7163 26.9658 27.8783 28.5808V32.6877C27.8837 33.2049 27.7785 33.7174 27.5697 34.1914C27.3609 34.6654 27.0531 35.0901 26.6667 35.4378L20.1969 29.0251H1.63559C1.20389 29.0251 0.789721 29.1943 0.483328 29.4957C0.176935 29.7971 0.0031978 30.2064 0 30.6343V64.3908C0.0031978 64.8187 0.176935 65.228 0.483328 65.5294C0.789721 65.8308 1.20389 66 1.63559 66H25.8671C26.2976 66 26.7106 65.8305 27.0151 65.5287C27.3195 65.2269 27.4906 64.8176 27.4906 64.3908V61.2686L29.7199 64.571L31.0284 63.7063L27.4906 58.4585V46.6659L35.3052 64.4509H37.4376L48.7537 38.6681L50.571 39.6408L51.092 46.4858L45.1674 49.3919L48.475 53.691L41.7145 63.7063L43.0229 64.571L50.4014 53.631L47.5785 49.9443L52.7398 47.4225L52.2188 40.5175L59.2096 44.2522C61.1048 45.2591 62.6886 46.7573 63.7918 48.5868C64.895 50.4163 65.4762 52.5084 65.4734 54.6397V64.1386H67.0485V54.6157C67.0411 52.2015 66.3737 49.8345 65.1171 47.7664C63.8605 45.6983 62.0617 44.0066 59.9123 42.8712ZM23.5651 11.9847L24.9342 12.417L25.1886 11.6965C26.233 8.48083 28.449 5.76636 31.404 4.08297V7.21723C31.404 7.42425 31.4869 7.6228 31.6346 7.76918C31.7823 7.91557 31.9826 7.99779 32.1915 7.99779C32.4003 7.99779 32.6007 7.91557 32.7483 7.76918C32.896 7.6228 32.979 7.42425 32.979 7.21723V2.72598C32.9445 2.44453 33.023 2.16092 33.1975 1.93629C33.372 1.71166 33.6286 1.56399 33.9119 1.5251H38.6613C38.8022 1.54287 38.9383 1.58808 39.0616 1.65813C39.1848 1.72819 39.2929 1.82169 39.3796 1.93329C39.4663 2.04488 39.5299 2.17237 39.5667 2.30841C39.6035 2.44445 39.6129 2.58635 39.5942 2.72598V7.21723C39.5942 7.42425 39.6772 7.6228 39.8248 7.76918C39.9725 7.91557 40.1729 7.99779 40.3817 7.99779C40.5906 7.99779 40.7909 7.91557 40.9386 7.76918C41.0863 7.6228 41.1692 7.42425 41.1692 7.21723V4.08297C44.125 5.76854 46.3441 8.48164 47.3967 11.6965L47.6512 12.417L49.0081 11.9847L49.3837 13.1856C40.9542 16.4043 31.6189 16.4043 23.1895 13.1856L23.5651 11.9847ZM25.3219 21.5917C25.0396 21.5405 24.7848 21.3918 24.6029 21.1719C24.421 20.9519 24.3237 20.6752 24.3284 20.3908V19.274C24.3183 19.0045 24.4001 18.7394 24.5605 18.5216C24.721 18.3037 24.9508 18.1458 25.2128 18.0731L25.8792 17.953V17.2806C25.8792 16.7882 25.8792 16.2959 25.964 15.7915C32.6963 17.6875 39.8284 17.6875 46.5607 15.7915C46.624 16.2934 46.6563 16.7987 46.6577 17.3046V17.9651L47.324 18.0731C47.5839 18.148 47.8109 18.3069 47.969 18.5246C48.1271 18.7422 48.2071 19.006 48.1964 19.274V20.3908C48.2011 20.6752 48.1037 20.9519 47.9218 21.1719C47.7399 21.3918 47.4851 21.5405 47.2029 21.5917H45.7853V22.3722C45.7853 24.4738 42.3081 32.1594 36.226 32.1594C30.1439 32.1594 26.691 24.4738 26.691 22.3722V21.5917H25.3219ZM36.226 33.7205C37.5724 33.6887 38.8976 33.3823 40.1192 32.8203C41.3407 32.2583 42.4323 31.4528 43.3258 30.4541V32.6397C43.3231 33.6006 43.5872 34.5437 44.0891 35.3657L36.2381 42.3428L28.5325 35.4017C29.0307 34.5825 29.2945 33.6443 29.2958 32.6877V30.5142C30.1817 31.4994 31.2603 32.2959 32.4662 32.8554C33.6721 33.4148 34.9801 33.7255 36.3108 33.7686L36.226 33.7205ZM37.7526 48.8275H34.7116L33.3788 46.786L36.3835 44.3843L39.3277 46.6899L37.7526 48.8275ZM20.3059 31.643L24.6555 35.9541H20.3059V31.643ZM1.49021 64.3428L1.63559 30.5982H18.8399V35.9782C18.8399 36.4049 19.011 36.8142 19.3155 37.116C19.6199 37.4178 20.0329 37.5873 20.4635 37.5873H25.8913V64.4509L1.49021 64.3428ZM27.4421 36.6026L35.0871 43.3996L29.5987 47.6987L27.43 42.7511L27.4421 36.6026ZM32.0703 47.7467L33.4636 49.8242L32.6277 54.5437L30.2651 49.1637L32.0703 47.7467ZM36.3229 63.0218L33.7786 57.2096L34.9902 50.4847H37.6193L38.8309 57.3897L36.3229 63.0218ZM39.9577 54.7838L39.0732 49.8122L40.5029 47.6747L42.3808 49.1397L39.9577 54.7838ZM43.0593 47.7467L37.5709 43.4476L45.2038 36.6507C45.5185 36.9321 45.8639 37.1777 46.2336 37.3832L47.3361 37.9716L43.0593 47.7467Z" fill="#232323"/>
</g>
<defs>
<clipPath id="clip0_298_4329">
<rect width="67" height="66" fill="white"/>
</clipPath>
</defs>
</svg>
