<svg width="22" height="22" viewBox="0 0 22 22" fill="none" xmlns="http://www.w3.org/2000/svg">
<path d="M21.0625 0.0625H0.9375C0.453516 0.0625 0.0625 0.453516 0.0625 0.9375V21.0625C0.0625 21.5465 0.453516 21.9375 0.9375 21.9375H21.0625C21.5465 21.9375 21.9375 21.5465 21.9375 21.0625V0.9375C21.9375 0.453516 21.5465 0.0625 21.0625 0.0625ZM20.1875 20.1875H15.1535V13.4664H17.9973L18.4238 10.166H15.1535V8.05781C15.1535 7.10078 15.4187 6.45 16.7887 6.45H18.5359V3.49688C18.2324 3.45586 17.1961 3.36563 15.9875 3.36563C13.4664 3.36563 11.741 4.90508 11.741 7.72969V10.1633H8.8918V13.4637H11.7438V20.1875H1.8125V1.8125H20.1875V20.1875Z" fill="white"/>
</svg>
