<svg width="31" height="31" viewBox="0 0 31 31" fill="none" xmlns="http://www.w3.org/2000/svg">
<path d="M29.6453 0.281982H1.50557C0.828841 0.281982 0.282104 0.828719 0.282104 1.50545V29.6452C0.282104 30.3219 0.828841 30.8687 1.50557 30.8687H29.6453C30.322 30.8687 30.8688 30.3219 30.8688 29.6452V1.50545C30.8688 0.828719 30.322 0.281982 29.6453 0.281982ZM26.1126 9.20947H23.6694C21.754 9.20947 21.3831 10.1194 21.3831 11.4576V14.4054H25.9558L25.3594 19.0201H21.3831V30.8687H16.6154V19.024H12.6277V14.4054H16.6154V11.0026C16.6154 7.05311 19.0279 4.90057 22.553 4.90057C24.2429 4.90057 25.692 5.02674 26.1164 5.08409V9.20947H26.1126Z" fill="white"/>
</svg>
