<svg width="80" height="381" viewBox="0 0 80 381" fill="none" xmlns="http://www.w3.org/2000/svg">
<circle cx="40" cy="186" r="39" stroke="#EEA91D" stroke-width="2"/>
<path d="M49.0804 180.23L24.475 204.836L21.1642 201.525L35.9821 186.707L36.6892 186L35.9821 185.293L32.1571 181.468L31.45 180.761L30.7429 181.468L29.875 182.336L27.7134 180.174L27.2267 179.687L26.0063 178.467L25.5196 177.98L23.4142 175.875L30.6946 168.595C31.3612 167.928 32.054 167.468 32.7707 167.187C33.5205 166.894 34.2783 166.75 35.05 166.75C35.8217 166.75 36.5795 166.894 37.3294 167.187C37.7794 167.364 38.2201 167.611 38.6507 167.935L34.2304 172.355L33.5233 173.062L34.2304 173.77L36.3358 175.875L35.4679 176.743L34.7608 177.45L35.4679 178.157L39.2929 181.982L40 182.689L40.7071 181.982L45.7696 176.92L46.2199 176.469L46.0023 175.871C45.8696 175.506 45.761 175.121 45.6773 174.716L45.6767 174.713C45.596 174.329 45.5563 173.948 45.5563 173.569C45.5563 171.613 46.2168 170.004 47.5426 168.678C48.8668 167.354 50.4749 166.694 52.4313 166.694C52.8885 166.694 53.3169 166.736 53.7184 166.817L49.3054 171.23L48.5983 171.937L49.3054 172.645L53.3554 176.695L54.0625 177.402L54.7696 176.695L59.2034 172.261C59.2713 172.67 59.3063 173.105 59.3063 173.569C59.3063 175.525 58.6463 177.133 57.3221 178.457C55.9963 179.783 54.3873 180.444 52.4313 180.444C52.0371 180.444 51.6421 180.411 51.2457 180.345C50.8812 180.284 50.5338 180.178 50.2013 180.027L49.5704 179.74L49.0804 180.23ZM26.0063 180.881V185.08L25.4313 185.655L20.0392 180.262L20.6142 179.687H24.8125H26.0063V180.881ZM55.525 204.836L44.6205 193.931L47.9313 190.62L58.8358 201.525L55.525 204.836Z" stroke="#EEA91D" stroke-width="2"/>
<circle cx="40" cy="341" r="39" stroke="#EEA91D" stroke-width="2"/>
<path d="M57.3901 359.146H19.6437C19.5364 359.143 19.4321 359.11 19.3431 359.05C19.2541 358.99 19.184 358.906 19.1411 358.807C19.1019 358.708 19.0917 358.6 19.1117 358.495C19.1317 358.39 19.181 358.293 19.254 358.215L57.006 320.477C57.0835 320.403 57.1803 320.352 57.2853 320.331C57.3903 320.31 57.4991 320.32 57.5991 320.358C57.6964 320.402 57.7794 320.472 57.8384 320.561C57.8974 320.65 57.9299 320.754 57.9323 320.861V358.621C57.9227 358.76 57.8619 358.891 57.7618 358.988C57.6617 359.085 57.5293 359.141 57.3901 359.146ZM20.9541 358.056H56.8422V322.176L20.9541 358.056Z" fill="#EEA91D" stroke="#EEA91D" stroke-miterlimit="10"/>
<path d="M52.013 353.172H34.5998C34.4957 353.164 34.3959 353.127 34.3114 353.066C34.2269 353.004 34.1611 352.921 34.1213 352.824C34.0815 352.728 34.0693 352.622 34.086 352.519C34.1027 352.416 34.1476 352.319 34.2158 352.24L51.6289 334.837C51.7081 334.77 51.8041 334.726 51.9063 334.711C52.0086 334.695 52.1132 334.708 52.2088 334.747C52.3043 334.787 52.3872 334.852 52.4483 334.935C52.5094 335.019 52.5464 335.118 52.5552 335.221V352.624C52.551 352.767 52.4927 352.903 52.3921 353.005C52.2914 353.107 52.1559 353.166 52.013 353.172ZM35.9159 352.082H51.4651V336.536L35.9159 352.082Z" fill="#EEA91D" stroke="#EEA91D" stroke-miterlimit="10"/>
<path d="M23.219 359.146C23.0692 359.146 22.9255 359.087 22.8196 358.981C22.7137 358.875 22.6542 358.731 22.6542 358.582V357.836C22.6314 357.752 22.6283 357.665 22.645 357.579C22.6617 357.494 22.6978 357.414 22.7505 357.345C22.8032 357.276 22.8711 357.22 22.9489 357.182C23.0268 357.143 23.1124 357.123 23.1992 357.123C23.286 357.123 23.3716 357.143 23.4495 357.182C23.5273 357.22 23.5952 357.276 23.6479 357.345C23.7006 357.414 23.7368 357.494 23.7535 357.579C23.7702 357.665 23.767 357.752 23.7442 357.836V358.621C23.735 358.757 23.6767 358.886 23.5801 358.982C23.4835 359.079 23.3552 359.137 23.219 359.146Z" fill="#EEA91D" stroke="#EEA91D" stroke-miterlimit="10"/>
<path d="M26.6361 359.146C26.4863 359.146 26.3426 359.087 26.2367 358.981C26.1308 358.875 26.0713 358.731 26.0713 358.582V357.119C26.1038 356.999 26.1748 356.894 26.2733 356.818C26.3718 356.743 26.4923 356.702 26.6163 356.702C26.7403 356.702 26.8609 356.743 26.9594 356.818C27.0579 356.894 27.1289 356.999 27.1614 357.119V358.621C27.1521 358.757 27.0938 358.886 26.9972 358.982C26.9007 359.079 26.7724 359.137 26.6361 359.146Z" fill="#EEA91D" stroke="#EEA91D" stroke-miterlimit="10"/>
<path d="M30.0588 359.146C29.909 359.146 29.7654 359.087 29.6594 358.981C29.5535 358.875 29.494 358.731 29.494 358.582V357.119C29.5282 357.002 29.5996 356.899 29.6974 356.825C29.7951 356.752 29.914 356.712 30.0362 356.712C30.1584 356.712 30.2774 356.752 30.3751 356.825C30.4729 356.899 30.5442 357.002 30.5785 357.119V358.621C30.5694 358.756 30.5119 358.884 30.4164 358.98C30.321 359.077 30.1941 359.136 30.0588 359.146Z" fill="#EEA91D" stroke="#EEA91D" stroke-miterlimit="10"/>
<path d="M33.4817 359.146C33.3319 359.146 33.1882 359.087 33.0823 358.981C32.9764 358.875 32.9169 358.731 32.9169 358.582V357.119C32.9494 356.999 33.0204 356.894 33.1189 356.818C33.2174 356.743 33.3379 356.702 33.4619 356.702C33.5859 356.702 33.7065 356.743 33.805 356.818C33.9035 356.894 33.9744 356.999 34.007 357.119V358.621C33.9977 358.757 33.9394 358.886 33.8428 358.982C33.7462 359.079 33.6179 359.137 33.4817 359.146Z" fill="#EEA91D" stroke="#EEA91D" stroke-miterlimit="10"/>
<path d="M36.8988 359.146C36.749 359.146 36.6053 359.087 36.4994 358.981C36.3935 358.875 36.334 358.731 36.334 358.582V357.119C36.3665 356.999 36.4375 356.894 36.536 356.818C36.6345 356.743 36.755 356.702 36.879 356.702C37.003 356.702 37.1236 356.743 37.2221 356.818C37.3206 356.894 37.3915 356.999 37.4241 357.119V358.621C37.4148 358.757 37.3565 358.886 37.2599 358.982C37.1634 359.079 37.0351 359.137 36.8988 359.146Z" fill="#EEA91D" stroke="#EEA91D" stroke-miterlimit="10"/>
<path d="M40.3214 359.146C40.1716 359.146 40.0279 359.087 39.922 358.981C39.8161 358.875 39.7566 358.731 39.7566 358.582V357.119C39.7891 356.999 39.8601 356.894 39.9586 356.818C40.0571 356.743 40.1776 356.702 40.3016 356.702C40.4256 356.702 40.5462 356.743 40.6447 356.818C40.7432 356.894 40.8142 356.999 40.8467 357.119V358.621C40.8374 358.757 40.7791 358.886 40.6825 358.982C40.586 359.079 40.4577 359.137 40.3214 359.146Z" fill="#EEA91D" stroke="#EEA91D" stroke-miterlimit="10"/>
<path d="M43.7443 359.146C43.5945 359.146 43.4508 359.087 43.3449 358.981C43.2389 358.875 43.1794 358.731 43.1794 358.582V357.119C43.212 356.999 43.2829 356.894 43.3814 356.818C43.4799 356.743 43.6005 356.702 43.7245 356.702C43.8485 356.702 43.969 356.743 44.0675 356.818C44.166 356.894 44.237 356.999 44.2695 357.119V358.621C44.2603 358.757 44.202 358.886 44.1054 358.982C44.0088 359.079 43.8805 359.137 43.7443 359.146Z" fill="#EEA91D" stroke="#EEA91D" stroke-miterlimit="10"/>
<path d="M47.1782 359.146C47.0284 359.146 46.8848 359.087 46.7788 358.981C46.6729 358.875 46.6134 358.731 46.6134 358.582V357.119C46.6459 356.999 46.7169 356.894 46.8154 356.818C46.9139 356.743 47.0345 356.702 47.1584 356.702C47.2824 356.702 47.403 356.743 47.5015 356.818C47.6 356.894 47.671 356.999 47.7035 357.119V358.621C47.6942 358.757 47.6359 358.886 47.5394 358.982C47.4428 359.079 47.3145 359.137 47.1782 359.146Z" fill="#EEA91D" stroke="#EEA91D" stroke-miterlimit="10"/>
<path d="M50.5671 359.146C50.4173 359.146 50.2737 359.087 50.1678 358.981C50.0618 358.875 50.0023 358.731 50.0023 358.582V357.119C50.0348 356.999 50.1058 356.894 50.2043 356.818C50.3028 356.743 50.4234 356.702 50.5474 356.702C50.6714 356.702 50.7919 356.743 50.8904 356.818C50.9889 356.894 51.0599 356.999 51.0924 357.119V358.621C51.0832 358.757 51.0248 358.886 50.9283 358.982C50.8317 359.079 50.7034 359.137 50.5671 359.146Z" fill="#EEA91D" stroke="#EEA91D" stroke-miterlimit="10"/>
<path d="M54.0012 359.146C53.8514 359.146 53.7078 359.087 53.6018 358.981C53.4959 358.875 53.4364 358.731 53.4364 358.582V357.119C53.4689 356.999 53.5399 356.894 53.6384 356.818C53.7369 356.743 53.8575 356.702 53.9815 356.702C54.1055 356.702 54.226 356.743 54.3245 356.818C54.423 356.894 54.494 356.999 54.5265 357.119V358.621C54.5173 358.757 54.4589 358.886 54.3624 358.982C54.2658 359.079 54.1375 359.137 54.0012 359.146Z" fill="#EEA91D" stroke="#EEA91D" stroke-miterlimit="10"/>
<path d="M57.3901 324.983H56.6389C56.5192 324.95 56.4136 324.879 56.3383 324.781C56.263 324.682 56.2222 324.562 56.2222 324.438C56.2222 324.314 56.263 324.194 56.3383 324.095C56.4136 323.997 56.5192 323.926 56.6389 323.893H57.3901C57.5097 323.926 57.6153 323.997 57.6906 324.095C57.766 324.194 57.8068 324.314 57.8068 324.438C57.8068 324.562 57.766 324.682 57.6906 324.781C57.6153 324.879 57.5097 324.95 57.3901 324.983Z" fill="#EEA91D" stroke="#EEA91D" stroke-miterlimit="10"/>
<path d="M57.39 328.405H55.9272C55.8434 328.428 55.7555 328.431 55.6703 328.414C55.5852 328.397 55.505 328.361 55.436 328.309C55.367 328.256 55.3112 328.188 55.2727 328.11C55.2342 328.032 55.2142 327.947 55.2142 327.86C55.2142 327.773 55.2342 327.688 55.2727 327.61C55.3112 327.532 55.367 327.464 55.436 327.411C55.505 327.359 55.5852 327.323 55.6703 327.306C55.7555 327.289 55.8434 327.292 55.9272 327.315H57.39C57.5097 327.348 57.6153 327.419 57.6906 327.517C57.7659 327.615 57.8067 327.736 57.8067 327.86C57.8067 327.984 57.7659 328.104 57.6906 328.203C57.6153 328.301 57.5097 328.372 57.39 328.405Z" fill="#EEA91D" stroke="#EEA91D" stroke-miterlimit="10"/>
<path d="M57.39 331.821H55.9272C55.8434 331.844 55.7555 331.847 55.6703 331.83C55.5852 331.814 55.505 331.778 55.436 331.725C55.367 331.672 55.3112 331.604 55.2727 331.526C55.2342 331.449 55.2142 331.363 55.2142 331.276C55.2142 331.189 55.2342 331.104 55.2727 331.026C55.3112 330.948 55.367 330.88 55.436 330.828C55.505 330.775 55.5852 330.739 55.6703 330.722C55.7555 330.705 55.8434 330.709 55.9272 330.731H57.39C57.5097 330.764 57.6153 330.835 57.6906 330.933C57.7659 331.032 57.8067 331.152 57.8067 331.276C57.8067 331.4 57.7659 331.521 57.6906 331.619C57.6153 331.718 57.5097 331.789 57.39 331.821Z" fill="#EEA91D" stroke="#EEA91D" stroke-miterlimit="10"/>
<path d="M57.39 335.243H55.9272C55.8434 335.266 55.7555 335.269 55.6703 335.252C55.5852 335.236 55.505 335.2 55.436 335.147C55.367 335.094 55.3112 335.026 55.2727 334.948C55.2342 334.871 55.2142 334.785 55.2142 334.698C55.2142 334.611 55.2342 334.526 55.2727 334.448C55.3112 334.37 55.367 334.302 55.436 334.25C55.505 334.197 55.5852 334.161 55.6703 334.144C55.7555 334.127 55.8434 334.131 55.9272 334.153H57.39C57.5097 334.186 57.6153 334.257 57.6906 334.355C57.7659 334.454 57.8067 334.574 57.8067 334.698C57.8067 334.822 57.7659 334.943 57.6906 335.041C57.6153 335.14 57.5097 335.211 57.39 335.243Z" fill="#EEA91D" stroke="#EEA91D" stroke-miterlimit="10"/>
<path d="M57.39 338.66H55.9272C55.843 338.684 55.7543 338.689 55.668 338.673C55.5817 338.657 55.5003 338.622 55.4301 338.569C55.36 338.517 55.3031 338.448 55.2639 338.37C55.2246 338.292 55.2042 338.205 55.2042 338.117C55.2042 338.03 55.2246 337.943 55.2639 337.865C55.3031 337.786 55.36 337.718 55.4301 337.666C55.5003 337.613 55.5817 337.578 55.668 337.562C55.7543 337.546 55.843 337.551 55.9272 337.575H57.39C57.5074 337.61 57.6104 337.681 57.6838 337.779C57.7571 337.876 57.7967 337.995 57.7967 338.117C57.7967 338.24 57.7571 338.358 57.6838 338.456C57.6104 338.554 57.5074 338.625 57.39 338.66Z" fill="#EEA91D" stroke="#EEA91D" stroke-miterlimit="10"/>
<path d="M57.39 342.081H55.9272C55.8434 342.104 55.7555 342.107 55.6703 342.091C55.5852 342.074 55.505 342.038 55.436 341.985C55.367 341.932 55.3112 341.864 55.2727 341.787C55.2342 341.709 55.2142 341.623 55.2142 341.536C55.2142 341.45 55.2342 341.364 55.2727 341.286C55.3112 341.208 55.367 341.141 55.436 341.088C55.505 341.035 55.5852 340.999 55.6703 340.982C55.7555 340.966 55.8434 340.969 55.9272 340.992H57.39C57.5097 341.024 57.6153 341.095 57.6906 341.194C57.7659 341.292 57.8067 341.413 57.8067 341.536C57.8067 341.66 57.7659 341.781 57.6906 341.879C57.6153 341.978 57.5097 342.049 57.39 342.081Z" fill="#EEA91D" stroke="#EEA91D" stroke-miterlimit="10"/>
<path d="M57.39 345.503H55.9272C55.8434 345.526 55.7555 345.529 55.6703 345.513C55.5852 345.496 55.505 345.46 55.436 345.407C55.367 345.354 55.3112 345.286 55.2727 345.209C55.2342 345.131 55.2142 345.045 55.2142 344.958C55.2142 344.872 55.2342 344.786 55.2727 344.708C55.3112 344.63 55.367 344.563 55.436 344.51C55.505 344.457 55.5852 344.421 55.6703 344.404C55.7555 344.388 55.8434 344.391 55.9272 344.414H57.39C57.5097 344.446 57.6153 344.517 57.6906 344.616C57.7659 344.714 57.8067 344.835 57.8067 344.958C57.8067 345.082 57.7659 345.203 57.6906 345.301C57.6153 345.4 57.5097 345.471 57.39 345.503Z" fill="#EEA91D" stroke="#EEA91D" stroke-miterlimit="10"/>
<path d="M57.39 348.92H55.9272C55.8434 348.943 55.7555 348.946 55.6703 348.929C55.5852 348.912 55.505 348.876 55.436 348.823C55.367 348.771 55.3112 348.703 55.2727 348.625C55.2342 348.547 55.2142 348.462 55.2142 348.375C55.2142 348.288 55.2342 348.202 55.2727 348.125C55.3112 348.047 55.367 347.979 55.436 347.926C55.505 347.874 55.5852 347.837 55.6703 347.821C55.7555 347.804 55.8434 347.807 55.9272 347.83H57.39C57.5097 347.862 57.6153 347.933 57.6906 348.032C57.7659 348.13 57.8067 348.251 57.8067 348.375C57.8067 348.499 57.7659 348.619 57.6906 348.718C57.6153 348.816 57.5097 348.887 57.39 348.92Z" fill="#EEA91D" stroke="#EEA91D" stroke-miterlimit="10"/>
<path d="M57.39 352.342H55.9272C55.8434 352.365 55.7555 352.368 55.6703 352.351C55.5852 352.334 55.505 352.298 55.436 352.245C55.367 352.193 55.3112 352.125 55.2727 352.047C55.2342 351.969 55.2142 351.884 55.2142 351.797C55.2142 351.71 55.2342 351.624 55.2727 351.547C55.3112 351.469 55.367 351.401 55.436 351.348C55.505 351.296 55.5852 351.259 55.6703 351.243C55.7555 351.226 55.8434 351.229 55.9272 351.252H57.39C57.5097 351.284 57.6153 351.355 57.6906 351.454C57.7659 351.552 57.8067 351.673 57.8067 351.797C57.8067 351.921 57.7659 352.041 57.6906 352.14C57.6153 352.238 57.5097 352.309 57.39 352.342Z" fill="#EEA91D" stroke="#EEA91D" stroke-miterlimit="10"/>
<path d="M57.39 355.764H55.9272C55.8434 355.787 55.7555 355.79 55.6703 355.773C55.5852 355.756 55.505 355.72 55.436 355.667C55.367 355.615 55.3112 355.547 55.2727 355.469C55.2342 355.391 55.2142 355.306 55.2142 355.219C55.2142 355.132 55.2342 355.046 55.2727 354.969C55.3112 354.891 55.367 354.823 55.436 354.77C55.505 354.718 55.5852 354.681 55.6703 354.665C55.7555 354.648 55.8434 354.651 55.9272 354.674H57.39C57.5097 354.706 57.6153 354.777 57.6906 354.876C57.7659 354.974 57.8067 355.095 57.8067 355.219C57.8067 355.343 57.7659 355.463 57.6906 355.562C57.6153 355.66 57.5097 355.731 57.39 355.764Z" fill="#EEA91D" stroke="#EEA91D" stroke-miterlimit="10"/>
<path d="M21.5801 352.585C20.9306 352.581 20.2969 352.377 19.7589 352C19.2209 351.622 18.8026 351.088 18.5567 350.465C18.3108 349.841 18.2483 349.156 18.3771 348.495C18.5058 347.835 18.8201 347.228 19.2803 346.752L47.5235 317.719C47.6302 317.617 47.77 317.561 47.9149 317.562C48.0598 317.562 48.199 317.62 48.3048 317.723L52.1526 321.757C52.2056 321.809 52.2476 321.872 52.276 321.942C52.3044 322.012 52.3184 322.087 52.3173 322.163C52.317 322.239 52.302 322.313 52.273 322.383C52.2441 322.452 52.2018 322.515 52.1489 322.567L23.9114 351.595C23.6058 351.912 23.2422 352.164 22.8419 352.334C22.4416 352.504 22.0126 352.589 21.5801 352.585ZM47.9085 318.942L20.0636 347.566C19.653 347.989 19.4208 348.564 19.418 349.164C19.4152 349.764 19.6421 350.34 20.0489 350.767C20.4617 351.18 21.012 351.411 21.5855 351.414C22.159 351.417 22.7115 351.19 23.1281 350.781L50.9788 322.157L47.9085 318.942Z" fill="#EEA91D" stroke="#EEA91D" stroke-miterlimit="10"/>
<path d="M46.8677 321.804C46.7963 321.804 46.7255 321.791 46.6595 321.764C46.5935 321.737 46.5337 321.696 46.4836 321.646L45.8284 320.99C45.7633 320.882 45.7368 320.754 45.7531 320.628C45.7694 320.502 45.8276 320.386 45.9182 320.297C46.0089 320.208 46.1268 320.153 46.2529 320.139C46.379 320.126 46.5061 320.155 46.6135 320.223L47.2687 320.878C47.3353 320.957 47.3788 321.053 47.3946 321.155C47.4104 321.257 47.3978 321.362 47.3582 321.457C47.3185 321.553 47.2534 321.636 47.1699 321.697C47.0864 321.758 46.9877 321.795 46.8846 321.804H46.8677Z" fill="#EEA91D" stroke="#EEA91D" stroke-miterlimit="10"/>
<path d="M45.3653 323.791C45.221 323.788 45.0836 323.729 44.9812 323.628L44.0831 322.735C44.021 322.628 43.996 322.503 44.0119 322.38C44.0278 322.257 44.0838 322.143 44.1712 322.055C44.2586 321.967 44.3726 321.91 44.4955 321.893C44.6184 321.876 44.7434 321.9 44.8513 321.962L45.7493 322.86C45.8175 322.939 45.8625 323.035 45.8791 323.138C45.8958 323.241 45.8836 323.347 45.8438 323.444C45.804 323.54 45.7382 323.624 45.6537 323.685C45.5692 323.747 45.4694 323.783 45.3653 323.791Z" fill="#EEA91D" stroke="#EEA91D" stroke-miterlimit="10"/>
<path d="M43.3828 325.305C43.2374 325.304 43.0978 325.248 42.9931 325.147L42.3379 324.486C42.2628 324.443 42.1987 324.382 42.1506 324.31C42.1025 324.238 42.0717 324.156 42.0606 324.07C42.0494 323.984 42.0583 323.896 42.0864 323.814C42.1146 323.732 42.1612 323.658 42.2228 323.596C42.2844 323.535 42.3592 323.489 42.4415 323.462C42.5238 323.434 42.6113 323.426 42.6973 323.438C42.7832 323.449 42.8653 323.481 42.9372 323.529C43.0091 323.578 43.0688 323.643 43.1117 323.718L43.7668 324.373C43.8653 324.478 43.9202 324.616 43.9202 324.76C43.9202 324.904 43.8653 325.042 43.7668 325.147C43.6636 325.246 43.5262 325.303 43.3828 325.305Z" fill="#EEA91D" stroke="#EEA91D" stroke-miterlimit="10"/>
<path d="M41.8746 327.276C41.7312 327.274 41.5938 327.217 41.4906 327.117L40.5925 326.22C40.5174 326.176 40.4533 326.116 40.4052 326.044C40.3571 325.972 40.3263 325.889 40.3152 325.803C40.3041 325.717 40.3129 325.63 40.3411 325.548C40.3692 325.466 40.4159 325.391 40.4774 325.33C40.539 325.269 40.6139 325.223 40.6961 325.195C40.7784 325.168 40.8659 325.16 40.9519 325.171C41.0379 325.183 41.12 325.215 41.1918 325.263C41.2637 325.312 41.3234 325.376 41.3663 325.452L42.2643 326.349C42.3311 326.429 42.3747 326.525 42.3902 326.628C42.4057 326.731 42.3926 326.836 42.3523 326.931C42.3121 327.027 42.2462 327.11 42.1619 327.171C42.0776 327.231 41.9782 327.268 41.8746 327.276Z" fill="#EEA91D" stroke="#EEA91D" stroke-miterlimit="10"/>
<path d="M39.8922 328.778C39.8208 328.778 39.75 328.765 39.684 328.738C39.618 328.71 39.5582 328.67 39.5081 328.619L38.8529 327.964C38.7908 327.857 38.7657 327.732 38.7816 327.609C38.7976 327.486 38.8535 327.372 38.9409 327.284C39.0284 327.196 39.1423 327.139 39.2652 327.122C39.3882 327.105 39.5132 327.129 39.621 327.191L40.2762 327.851C40.3428 327.931 40.3864 328.027 40.4022 328.129C40.4179 328.231 40.4053 328.336 40.3657 328.431C40.3261 328.527 40.261 328.61 40.1774 328.671C40.0939 328.732 39.9953 328.769 39.8922 328.778Z" fill="#EEA91D" stroke="#EEA91D" stroke-miterlimit="10"/>
<path d="M38.3899 330.765C38.2457 330.762 38.1082 330.703 38.0058 330.601L37.1078 329.709C37.0457 329.602 37.0206 329.477 37.0365 329.354C37.0524 329.231 37.1084 329.117 37.1958 329.029C37.2832 328.941 37.3972 328.884 37.5201 328.867C37.6431 328.85 37.7681 328.874 37.8759 328.936L38.774 329.834C38.8422 329.913 38.8871 330.009 38.9038 330.112C38.9205 330.215 38.9082 330.321 38.8684 330.417C38.8286 330.514 38.7628 330.598 38.6784 330.659C38.5939 330.72 38.494 330.757 38.3899 330.765Z" fill="#EEA91D" stroke="#EEA91D" stroke-miterlimit="10"/>
<path d="M36.4073 332.267C36.3355 332.267 36.2645 332.253 36.1985 332.225C36.1325 332.197 36.0729 332.155 36.0232 332.104L35.3624 331.448C35.2873 331.405 35.2232 331.345 35.1751 331.273C35.127 331.2 35.0962 331.118 35.0851 331.032C35.074 330.946 35.0828 330.859 35.111 330.777C35.1391 330.695 35.1858 330.62 35.2473 330.559C35.3089 330.498 35.3838 330.452 35.466 330.424C35.5483 330.397 35.6358 330.388 35.7218 330.4C35.8078 330.412 35.8899 330.443 35.9617 330.492C36.0336 330.541 36.0933 330.605 36.1362 330.681L36.7914 331.336C36.8882 331.44 36.9421 331.577 36.9421 331.72C36.9421 331.862 36.8882 331.999 36.7914 332.104C36.689 332.205 36.5516 332.264 36.4073 332.267Z" fill="#EEA91D" stroke="#EEA91D" stroke-miterlimit="10"/>
<path d="M34.905 334.249C34.7596 334.249 34.62 334.192 34.5153 334.091L33.6229 333.21C33.5632 333.103 33.5401 332.979 33.5571 332.858C33.5741 332.736 33.6302 332.623 33.7171 332.536C33.8039 332.45 33.9166 332.394 34.0383 332.377C34.1599 332.36 34.2837 332.383 34.391 332.442L35.2891 333.334C35.3875 333.439 35.4424 333.578 35.4424 333.721C35.4424 333.865 35.3875 334.003 35.2891 334.108C35.1832 334.202 35.0462 334.252 34.905 334.249Z" fill="#EEA91D" stroke="#EEA91D" stroke-miterlimit="10"/>
<path d="M32.9168 335.751C32.7734 335.749 32.636 335.693 32.5327 335.593L31.8776 334.938C31.8154 334.831 31.7904 334.706 31.8063 334.583C31.8222 334.46 31.8782 334.346 31.9656 334.258C32.053 334.17 32.167 334.113 32.2899 334.096C32.4128 334.079 32.5379 334.103 32.6457 334.165L33.3009 334.825C33.3977 334.93 33.4516 335.067 33.4516 335.209C33.4516 335.352 33.3977 335.489 33.3009 335.593C33.251 335.644 33.1912 335.685 33.1251 335.712C33.0591 335.739 32.9882 335.752 32.9168 335.751Z" fill="#EEA91D" stroke="#EEA91D" stroke-miterlimit="10"/>
<path d="M31.4144 337.728C31.343 337.729 31.2722 337.715 31.2062 337.688C31.1402 337.661 31.0804 337.62 31.0303 337.57L30.1323 336.672C30.0354 336.567 29.9816 336.43 29.9816 336.288C29.9816 336.145 30.0354 336.008 30.1323 335.904C30.237 335.805 30.3754 335.75 30.5192 335.75C30.6629 335.75 30.8013 335.805 30.906 335.904L31.7985 336.802C31.865 336.881 31.9086 336.977 31.9244 337.079C31.9402 337.181 31.9276 337.286 31.8879 337.381C31.8483 337.477 31.7832 337.56 31.6997 337.621C31.6161 337.682 31.5175 337.719 31.4144 337.728Z" fill="#EEA91D" stroke="#EEA91D" stroke-miterlimit="10"/>
<path d="M29.4319 339.241C29.2876 339.238 29.1502 339.179 29.0478 339.077L28.387 338.422C28.3256 338.315 28.3015 338.19 28.3183 338.067C28.3351 337.944 28.392 337.83 28.48 337.742C28.5681 337.655 28.6824 337.599 28.8055 337.583C28.9285 337.567 29.0534 337.592 29.1608 337.654L29.8159 338.309C29.8841 338.389 29.9291 338.485 29.9458 338.588C29.9624 338.691 29.9502 338.797 29.9104 338.893C29.8706 338.99 29.8048 339.073 29.7203 339.135C29.6359 339.196 29.536 339.233 29.4319 339.241Z" fill="#EEA91D" stroke="#EEA91D" stroke-miterlimit="10"/>
<path d="M27.9295 341.223C27.7861 341.221 27.6488 341.165 27.5455 341.065L26.6474 340.167C26.5666 340.127 26.4966 340.068 26.4432 339.996C26.3898 339.923 26.3546 339.839 26.3405 339.75C26.3265 339.66 26.3339 339.569 26.3623 339.484C26.3906 339.398 26.4391 339.321 26.5036 339.258C26.568 339.195 26.6467 339.148 26.7329 339.121C26.8191 339.095 26.9104 339.09 26.9992 339.106C27.0879 339.122 27.1715 339.159 27.2429 339.214C27.3144 339.269 27.3717 339.34 27.4099 339.422L28.308 340.32C28.4064 340.424 28.4613 340.563 28.4613 340.706C28.4613 340.85 28.4064 340.989 28.308 341.093C28.2019 341.181 28.0673 341.227 27.9295 341.223Z" fill="#EEA91D" stroke="#EEA91D" stroke-miterlimit="10"/>
<path d="M25.9413 342.725C25.7979 342.723 25.6606 342.667 25.5573 342.567L24.9021 341.912C24.84 341.805 24.8149 341.68 24.8308 341.557C24.8468 341.434 24.9027 341.32 24.9901 341.232C25.0775 341.144 25.1915 341.087 25.3144 341.07C25.4374 341.053 25.5624 341.077 25.6702 341.139L26.3311 341.794C26.4296 341.898 26.4844 342.037 26.4844 342.18C26.4844 342.324 26.4296 342.462 26.3311 342.567C26.2264 342.668 26.0868 342.725 25.9413 342.725Z" fill="#EEA91D" stroke="#EEA91D" stroke-miterlimit="10"/>
<path d="M24.439 344.707C24.2955 344.705 24.1582 344.649 24.0549 344.549L23.1569 343.651C23.0955 343.543 23.0714 343.418 23.0882 343.296C23.105 343.173 23.1619 343.059 23.2499 342.971C23.3379 342.884 23.4523 342.828 23.5754 342.812C23.6984 342.796 23.8233 342.821 23.9307 342.883L24.8231 343.781C24.9199 343.886 24.9737 344.023 24.9737 344.165C24.9737 344.308 24.9199 344.445 24.8231 344.549C24.7732 344.6 24.7134 344.641 24.6473 344.668C24.5813 344.695 24.5104 344.708 24.439 344.707Z" fill="#EEA91D" stroke="#EEA91D" stroke-miterlimit="10"/>
<path d="M22.4564 346.198C22.3851 346.199 22.3143 346.185 22.2483 346.158C22.1823 346.131 22.1224 346.091 22.0723 346.04L21.4172 345.385C21.3575 345.278 21.3344 345.154 21.3514 345.032C21.3684 344.911 21.4245 344.798 21.5114 344.711C21.5982 344.624 21.711 344.568 21.8326 344.551C21.9542 344.534 22.078 344.557 22.1853 344.617L22.8405 345.272C22.9071 345.351 22.9507 345.447 22.9664 345.549C22.9822 345.652 22.9696 345.756 22.93 345.852C22.8903 345.947 22.8252 346.03 22.7417 346.091C22.6582 346.152 22.5595 346.189 22.4564 346.198Z" fill="#EEA91D" stroke="#EEA91D" stroke-miterlimit="10"/>
<line x1="40.5" y1="79" x2="40.5" y2="146" stroke="#EEA91D"/>
<line x1="40.5" y1="225" x2="40.5" y2="301" stroke="#EEA91D"/>
<circle cx="40" cy="40" r="39" stroke="#EEA91D" stroke-width="2"/>
<path d="M20 21.2188C20 20.8955 20.1284 20.5855 20.357 20.357C20.5855 20.1284 20.8955 20 21.2188 20H57.7812C58.1045 20 58.4145 20.1284 58.643 20.357C58.8716 20.5855 59 20.8955 59 21.2188V28.5312C59 28.8545 58.8716 29.1645 58.643 29.393C58.4145 29.6216 58.1045 29.75 57.7812 29.75H54.125V34.625H57.7812C58.1045 34.625 58.4145 34.7534 58.643 34.982C58.8716 35.2105 59 35.5205 59 35.8438V43.1562C59 43.4795 58.8716 43.7895 58.643 44.018C58.4145 44.2466 58.1045 44.375 57.7812 44.375H54.125V49.25H57.7812C58.1045 49.25 58.4145 49.3784 58.643 49.607C58.8716 49.8355 59 50.1455 59 50.4688V57.7812C59 58.1045 58.8716 58.4145 58.643 58.643C58.4145 58.8716 58.1045 59 57.7812 59H21.2188C20.8955 59 20.5855 58.8716 20.357 58.643C20.1284 58.4145 20 58.1045 20 57.7812V50.4688C20 50.1455 20.1284 49.8355 20.357 49.607C20.5855 49.3784 20.8955 49.25 21.2188 49.25H24.875V44.375H21.2188C20.8955 44.375 20.5855 44.2466 20.357 44.018C20.1284 43.7895 20 43.4795 20 43.1562V35.8438C20 35.5205 20.1284 35.2105 20.357 34.982C20.5855 34.7534 20.8955 34.625 21.2188 34.625H24.875V29.75H21.2188C20.8955 29.75 20.5855 29.6216 20.357 29.393C20.1284 29.1645 20 28.8545 20 28.5312V21.2188ZM27.3125 29.75V34.625H38.2812V29.75H27.3125ZM40.7188 29.75V34.625H51.6875V29.75H40.7188ZM27.3125 44.375V49.25H38.2812V44.375H27.3125ZM40.7188 44.375V49.25H51.6875V44.375H40.7188ZM22.4375 22.4375V27.3125H30.9688V22.4375H22.4375ZM33.4062 22.4375V27.3125H45.5938V22.4375H33.4062ZM48.0312 22.4375V27.3125H56.5625V22.4375H48.0312ZM22.4375 37.0625V41.9375H30.9688V37.0625H22.4375ZM33.4062 37.0625V41.9375H45.5938V37.0625H33.4062ZM48.0312 37.0625V41.9375H56.5625V37.0625H48.0312ZM22.4375 51.6875V56.5625H30.9688V51.6875H22.4375ZM33.4062 51.6875V56.5625H45.5938V51.6875H33.4062ZM48.0312 51.6875V56.5625H56.5625V51.6875H48.0312Z" fill="#EEA91D"/>
</svg>
