<svg width="33" height="33" viewBox="0 0 33 33" fill="none" xmlns="http://www.w3.org/2000/svg">
<path d="M16.6581 11.1627C13.7193 11.1627 11.3209 13.5611 11.3209 16.4999C11.3209 19.4388 13.7193 21.8371 16.6581 21.8371C19.597 21.8371 21.9954 19.4388 21.9954 16.4999C21.9954 13.5611 19.597 11.1627 16.6581 11.1627ZM32.6658 16.4999C32.6658 14.2898 32.6858 12.0996 32.5617 9.89347C32.4375 7.33098 31.853 5.05676 29.9791 3.18293C28.1013 1.3051 25.8311 0.724531 23.2686 0.60041C21.0584 0.476289 18.8683 0.496308 16.6622 0.496308C14.452 0.496308 12.2619 0.476289 10.0557 0.60041C7.49321 0.724531 5.21899 1.3091 3.34516 3.18293C1.46733 5.06076 0.886762 7.33098 0.762641 9.89347C0.63852 12.1036 0.65854 14.2938 0.65854 16.4999C0.65854 18.7061 0.63852 20.9002 0.762641 23.1064C0.886762 25.6689 1.47133 27.9431 3.34516 29.8169C5.22299 31.6947 7.49321 32.2753 10.0557 32.3994C12.2659 32.5235 14.456 32.5035 16.6622 32.5035C18.8723 32.5035 21.0624 32.5235 23.2686 32.3994C25.8311 32.2753 28.1053 31.6907 29.9791 29.8169C31.857 27.9391 32.4375 25.6689 32.5617 23.1064C32.6898 20.9002 32.6658 18.7101 32.6658 16.4999ZM16.6581 24.7119C12.1137 24.7119 8.44614 21.0444 8.44614 16.4999C8.44614 11.9555 12.1137 8.28791 16.6581 8.28791C21.2026 8.28791 24.8702 11.9555 24.8702 16.4999C24.8702 21.0444 21.2026 24.7119 16.6581 24.7119ZM25.2065 9.86945C24.1455 9.86945 23.2886 9.01262 23.2886 7.95158C23.2886 6.89055 24.1455 6.03371 25.2065 6.03371C26.2675 6.03371 27.1244 6.89055 27.1244 7.95158C27.1247 8.20353 27.0753 8.45306 26.979 8.68589C26.8827 8.91872 26.7415 9.13027 26.5633 9.30842C26.3852 9.48658 26.1736 9.62784 25.9408 9.72411C25.708 9.82038 25.4584 9.86977 25.2065 9.86945Z" fill="white"/>
</svg>
