<svg width="34" height="30" viewBox="0 0 34 30" fill="none" xmlns="http://www.w3.org/2000/svg">
<path d="M16.7857 17.5C19.8715 17.5 22.381 15.2575 22.381 12.5C22.381 9.7425 19.8715 7.5 16.7857 7.5C13.7 7.5 11.1905 9.7425 11.1905 12.5C11.1905 15.2575 13.7 17.5 16.7857 17.5ZM16.7857 10C18.3286 10 19.5833 11.1212 19.5833 12.5C19.5833 13.8787 18.3286 15 16.7857 15C15.2428 15 13.9881 13.8787 13.9881 12.5C13.9881 11.1212 15.2428 10 16.7857 10Z" fill="white"/>
<path d="M15.9744 27.2675C16.2111 27.4186 16.4948 27.4998 16.7857 27.4998C17.0766 27.4998 17.3603 27.4186 17.597 27.2675C18.0222 26.9987 28.0167 20.55 27.9762 12.5C27.9762 6.98625 22.9558 2.5 16.7857 2.5C10.6155 2.5 5.59522 6.98625 5.59522 12.4937C5.55465 20.55 15.5491 26.9987 15.9744 27.2675ZM16.7857 5C21.4144 5 25.1785 8.36375 25.1785 12.5063C25.2079 18.0538 19.0406 23.035 16.7857 24.6688C14.5322 23.0338 8.36346 18.0513 8.39283 12.5C8.39283 8.36375 12.157 5 16.7857 5Z" fill="white"/>
</svg>
