<svg width="48" height="48" viewBox="0 0 48 48" fill="none" xmlns="http://www.w3.org/2000/svg">
<circle cx="23.7864" cy="23.7864" r="23.7864" fill="#EEA91D"/>
<g clip-path="url(#clip0_324_911)">
<path d="M23.1054 40.6549C22.9538 40.6593 22.8029 40.6311 22.6631 40.5721C22.5232 40.5131 22.3975 40.4248 22.2945 40.3129C21.8404 39.8245 11.1852 28.2396 11.1852 21.8895C11.1437 20.2954 11.4207 18.7091 11.9996 17.2242C12.5786 15.7393 13.4479 14.3858 14.5563 13.2436C15.6647 12.1014 16.9896 11.1936 18.4531 10.5738C19.9165 9.95393 21.4887 9.63458 23.077 9.63458C24.6654 9.63458 26.2376 9.95393 27.701 10.5738C29.1645 11.1936 30.4894 12.1014 31.5978 13.2436C32.7062 14.3858 33.5755 15.7393 34.1544 17.2242C34.7334 18.7091 35.0104 20.2954 34.9689 21.8895C34.9689 28.2396 24.3055 39.8 23.8514 40.3129C23.7567 40.4178 23.6418 40.5022 23.5135 40.561C23.3852 40.6198 23.2464 40.6517 23.1054 40.6549ZM23.1054 12.0875C20.528 12.0982 18.0591 13.131 16.2365 14.9608C14.4139 16.7906 13.3853 19.2692 13.3746 21.8569C13.3746 26.0659 19.8618 34.2233 23.1054 37.9683C26.422 34.2233 32.8362 26.0659 32.8362 21.8569C32.8255 19.2692 31.7969 16.7906 29.9743 14.9608C28.1518 13.131 25.6829 12.0982 23.1054 12.0875Z" fill="white"/>
<path d="M23.1055 26.7416C22.0446 26.7432 21.0072 26.4288 20.1245 25.8381C19.2418 25.2474 18.5536 24.4071 18.1469 23.4234C17.7402 22.4398 17.6333 21.3571 17.8399 20.3125C18.0465 19.2678 18.5571 18.3082 19.3072 17.5552C20.0573 16.8021 21.0131 16.2894 22.0536 16.082C23.0941 15.8746 24.1725 15.9819 25.1523 16.3902C26.132 16.7985 26.9691 17.4895 27.5574 18.3757C28.1458 19.2619 28.459 20.3034 28.4574 21.3684C28.4552 22.7928 27.8907 24.1583 26.8874 25.1655C25.8842 26.1727 24.5242 26.7395 23.1055 26.7416ZM23.1055 18.1283C22.4639 18.1283 21.8368 18.3193 21.3034 18.6771C20.77 19.0349 20.3542 19.5435 20.1087 20.1385C19.8632 20.7336 19.799 21.3883 19.9242 22.02C20.0493 22.6517 20.3583 23.232 20.8119 23.6874C21.2655 24.1428 21.8434 24.453 22.4726 24.5786C23.1018 24.7043 23.754 24.6398 24.3467 24.3933C24.9394 24.1468 25.446 23.7294 25.8024 23.1939C26.1588 22.6584 26.3491 22.0288 26.3491 21.3847C26.3405 20.5267 25.995 19.7068 25.3876 19.1031C24.7802 18.4994 23.9601 18.1608 23.1055 18.1608V18.1283Z" fill="white"/>
</g>
<defs>
<clipPath id="clip0_324_911">
<rect width="26.7597" height="34.1929" fill="white" transform="translate(10.4067 6.68992)"/>
</clipPath>
</defs>
</svg>
