<svg width="64" height="65" viewBox="0 0 64 65" fill="none" xmlns="http://www.w3.org/2000/svg">
<g clip-path="url(#clip0_298_4345)">
<path d="M56.1779 14.1081H15.2971C15.0841 12.1461 14.1381 10.3401 12.652 9.05859C11.1659 7.7771 9.25173 7.1167 7.30008 7.21214C5.34844 7.30758 3.50641 8.15167 2.14981 9.57218C0.793217 10.9927 0.0243188 12.8825 0 14.8561V57.2505C0.00306584 59.3037 0.81267 61.2719 2.25106 62.7227C3.68944 64.1735 5.63899 64.9883 7.67164 64.9883H64V22.0563L56.1779 14.1081ZM56.6176 16.6912L61.489 21.6121H56.6176V16.6912ZM1.56208 14.8561C1.63091 13.2521 2.31017 11.7367 3.45817 10.6263C4.60617 9.51581 6.13426 8.89591 7.72372 8.89591C9.31319 8.89591 10.8413 9.51581 11.9893 10.6263C13.1373 11.7367 13.8165 13.2521 13.8854 14.8561V51.5815C13.2347 50.9114 12.4562 50.3815 11.597 50.0239C10.7378 49.6663 9.8158 49.4884 8.88663 49.501H7.72952C6.52873 49.5027 5.34511 49.7892 4.27392 50.3374C3.20273 50.8855 2.27386 51.68 1.56208 52.6569V14.8561ZM13.8854 55.2517C13.8854 57.5895 11.6406 59.483 8.88663 59.483H8.48163V51.0205H8.88663C11.5827 51.0205 13.8275 52.914 13.8275 55.2517H13.8854ZM7.72952 63.4337C6.16528 63.4336 4.66 62.8307 3.52057 61.7482C2.38113 60.6656 1.69334 59.1848 1.59742 57.6077C1.5015 56.0306 2.00466 54.4759 3.00434 53.2605C4.00402 52.0452 5.42495 51.2608 6.9774 51.0673V60.9674H8.88663C12.4737 60.9674 15.3896 58.3843 15.3896 55.2167C15.3896 55.1232 15.3896 55.0296 15.3896 54.9478V15.6159H55.0208V23.1433H62.461V63.4688L7.72952 63.4337Z" fill="#191715"/>
<path d="M56.5598 58.0102V26.907L25.769 58.0102H56.5598ZM55.0209 36.4332H53.5629V37.9527H55.0209V40.9917H53.5629V42.5113H55.0209V45.562H53.5629V47.0815H55.0209V50.1205H53.5629V51.64H55.0209V56.4907H50.2189V55.0063H48.7146V56.4907H45.764V55.0063H44.2597V56.4907H41.2512V55.0063H39.747V56.4907H36.7269V55.0063H35.2227V56.4907H29.4371L55.0209 30.5772V36.4332Z" fill="#191715"/>
<path d="M50.2534 41.1554L39.8394 51.6751H50.2534V41.1554ZM48.7491 50.1205H43.5074L48.7491 44.8256V50.1205Z" fill="#191715"/>
<path d="M27.0071 45.2346L28.5692 49.9101L29.9925 49.4192L25.6186 36.3864C25.9687 36.1514 26.257 35.8339 26.4586 35.4612C26.6602 35.0886 26.769 34.672 26.7757 34.2474C26.7753 33.6818 26.5952 33.1313 26.262 32.6768C25.9287 32.2223 25.4598 31.8879 24.9243 31.7227V30.1564H23.4201V31.6759C22.9529 31.8191 22.5348 32.0914 22.2129 32.4622C21.8911 32.8329 21.6784 33.2873 21.599 33.7738C21.5195 34.2603 21.5764 34.7596 21.7633 35.2151C21.9502 35.6706 22.2595 36.0642 22.6564 36.3514L18.2825 49.3724L19.7057 49.8633L21.2678 45.1879C23.163 45.7002 25.1582 45.7002 27.0534 45.1879L27.0071 45.2346ZM24.1143 33.102C24.3432 33.102 24.5669 33.1705 24.7572 33.2989C24.9475 33.4274 25.0958 33.6099 25.1833 33.8235C25.2709 34.0371 25.2939 34.2721 25.2492 34.4988C25.2046 34.7256 25.0943 34.9338 24.9325 35.0973C24.7707 35.2608 24.5645 35.3721 24.3401 35.4172C24.1156 35.4623 23.883 35.4391 23.6715 35.3507C23.4601 35.2622 23.2794 35.1124 23.1522 34.9202C23.0251 34.728 22.9572 34.502 22.9572 34.2708C22.9572 33.9608 23.0791 33.6635 23.2961 33.4443C23.5131 33.2251 23.8075 33.102 24.1143 33.102ZM21.7075 43.7619L24.0217 36.854H24.1838L26.498 43.7619C24.9264 44.1671 23.2791 44.1671 21.7075 43.7619Z" fill="#191715"/>
<path d="M32.6768 37.941H34.1926V35.6033H37.3863V37.941H38.8905V35.6033H42.8363L43.5884 34.8435V29.3616H47.0597V27.8187H43.5884V23.1433H51.1906V21.6238H43.5884V19.2861H42.0841V21.6238H38.8905V19.2861H37.3863V21.6238H34.1926V19.2861H32.6884V21.6238H29.217V23.1433H32.6884V27.8187H29.217V29.3382H32.6884L32.6768 37.941ZM34.181 34.0955V29.42H37.3747V34.0955H34.181ZM42.0726 34.0955H38.8789V29.42H42.0726V34.0955ZM42.0726 23.1316V27.807H38.8789V23.1316H42.0726ZM34.1926 23.1433H37.3863V27.8187H34.1926V23.1433Z" fill="#191715"/>
<path d="M25.4333 10.4729H57.1845C58.5655 10.4729 59.8899 9.91877 60.8664 8.93236C61.8429 7.94595 62.3915 6.60809 62.3915 5.21309C62.3915 3.81809 61.8429 2.48022 60.8664 1.49381C59.8899 0.507395 58.5655 -0.0467529 57.1845 -0.0467529H25.4333L25.1324 0.0116934L14.9961 4.50009V5.89103L25.1324 10.3677L25.4333 10.4729ZM56.4324 8.96511H54.7314V1.51951H56.4324V8.96511ZM53.2272 8.96511H26.1854V5.99622H53.2272V8.96511ZM53.2272 4.47671H26.1854V1.51951H53.2272V4.47671ZM24.6811 8.55602L20.9205 6.89625V3.57669L24.6811 1.91691V8.55602ZM60.8641 5.23646C60.8617 6.09062 60.57 6.91823 60.0374 7.58168C59.5048 8.24512 58.7634 8.70446 57.9366 8.8833V1.58964C58.7634 1.76847 59.5048 2.22781 60.0374 2.89126C60.57 3.55471 60.8617 4.3823 60.8641 5.23646ZM19.4163 4.24294V6.22999L17.1715 5.23646L19.4163 4.24294Z" fill="#191715"/>
</g>
<defs>
<clipPath id="clip0_298_4345">
<rect width="64" height="65" fill="white"/>
</clipPath>
</defs>
</svg>
