<svg width="80" height="80" viewBox="0 0 80 80" fill="none" xmlns="http://www.w3.org/2000/svg">
<circle cx="40" cy="40" r="39" stroke="#EEA91D" stroke-width="2"/>
<path d="M57.3901 58.1463H19.6437C19.5364 58.1434 19.4321 58.11 19.3431 58.05C19.2541 57.99 19.184 57.9059 19.1411 57.8075C19.1019 57.7081 19.0917 57.5996 19.1117 57.4947C19.1317 57.3897 19.181 57.2926 19.254 57.2146L57.006 19.4767C57.0835 19.4028 57.1803 19.3524 57.2853 19.3314C57.3903 19.3104 57.4991 19.3197 57.5991 19.3582C57.6964 19.4019 57.7794 19.4723 57.8384 19.5613C57.8974 19.6502 57.9299 19.754 57.9323 19.8607V57.6211C57.9227 57.7601 57.8619 57.8906 57.7618 57.9876C57.6617 58.0845 57.5293 58.141 57.3901 58.1463ZM20.9541 57.0564H56.8422V21.1764L20.9541 57.0564Z" fill="#EEA91D" stroke="#EEA91D" stroke-miterlimit="10"/>
<path d="M52.013 52.1719H34.5998C34.4957 52.1638 34.3959 52.127 34.3114 52.0656C34.2269 52.0042 34.1611 51.9206 34.1213 51.8241C34.0815 51.7275 34.0693 51.6219 34.086 51.5188C34.1027 51.4157 34.1476 51.3193 34.2158 51.2402L51.6289 33.8366C51.7081 33.77 51.8041 33.7265 51.9063 33.7107C52.0086 33.6949 52.1132 33.7075 52.2088 33.7472C52.3043 33.7868 52.3872 33.8519 52.4483 33.9354C52.5094 34.0189 52.5464 34.1175 52.5552 34.2206V51.6242C52.551 51.7671 52.4927 51.9032 52.3921 52.0049C52.2914 52.1066 52.1559 52.1662 52.013 52.1719ZM35.9159 51.0821H51.4651V35.5363L35.9159 51.0821Z" fill="#EEA91D" stroke="#EEA91D" stroke-miterlimit="10"/>
<path d="M23.219 58.1462C23.0692 58.1462 22.9255 58.0868 22.8196 57.9809C22.7137 57.875 22.6542 57.7313 22.6542 57.5816V56.8362C22.6314 56.7524 22.6283 56.6646 22.645 56.5794C22.6617 56.4942 22.6978 56.4141 22.7505 56.3451C22.8032 56.2762 22.8711 56.2203 22.9489 56.1819C23.0268 56.1434 23.1124 56.1234 23.1992 56.1234C23.286 56.1234 23.3716 56.1434 23.4495 56.1819C23.5273 56.2203 23.5952 56.2762 23.6479 56.3451C23.7006 56.4141 23.7368 56.4942 23.7535 56.5794C23.7702 56.6646 23.767 56.7524 23.7442 56.8362V57.6211C23.735 57.7573 23.6767 57.8856 23.5801 57.9822C23.4835 58.0787 23.3552 58.137 23.219 58.1462Z" fill="#EEA91D" stroke="#EEA91D" stroke-miterlimit="10"/>
<path d="M26.6361 58.1462C26.4863 58.1462 26.3426 58.0867 26.2367 57.9808C26.1308 57.8749 26.0713 57.7313 26.0713 57.5815V56.119C26.1038 55.9994 26.1748 55.8938 26.2733 55.8185C26.3718 55.7432 26.4923 55.7024 26.6163 55.7024C26.7403 55.7024 26.8609 55.7432 26.9594 55.8185C27.0579 55.8938 27.1289 55.9994 27.1614 56.119V57.621C27.1521 57.7573 27.0938 57.8856 26.9972 57.9821C26.9007 58.0787 26.7724 58.137 26.6361 58.1462Z" fill="#EEA91D" stroke="#EEA91D" stroke-miterlimit="10"/>
<path d="M30.0588 58.1462C29.909 58.1462 29.7654 58.0867 29.6594 57.9808C29.5535 57.8749 29.494 57.7313 29.494 57.5815V56.119C29.5282 56.0017 29.5996 55.8987 29.6974 55.8253C29.7951 55.752 29.914 55.7124 30.0362 55.7124C30.1584 55.7124 30.2774 55.752 30.3751 55.8253C30.4729 55.8987 30.5442 56.0017 30.5785 56.119V57.621C30.5694 57.7564 30.5119 57.8839 30.4164 57.9803C30.321 58.0768 30.1941 58.1356 30.0588 58.1462Z" fill="#EEA91D" stroke="#EEA91D" stroke-miterlimit="10"/>
<path d="M33.4817 58.1462C33.3319 58.1462 33.1882 58.0867 33.0823 57.9808C32.9764 57.8749 32.9169 57.7313 32.9169 57.5815V56.119C32.9494 55.9994 33.0204 55.8938 33.1189 55.8185C33.2174 55.7432 33.3379 55.7024 33.4619 55.7024C33.5859 55.7024 33.7065 55.7432 33.805 55.8185C33.9035 55.8938 33.9744 55.9994 34.007 56.119V57.621C33.9977 57.7573 33.9394 57.8856 33.8428 57.9821C33.7462 58.0787 33.6179 58.137 33.4817 58.1462Z" fill="#EEA91D" stroke="#EEA91D" stroke-miterlimit="10"/>
<path d="M36.8988 58.1462C36.749 58.1462 36.6053 58.0867 36.4994 57.9808C36.3935 57.8749 36.334 57.7313 36.334 57.5815V56.119C36.3665 55.9994 36.4375 55.8938 36.536 55.8185C36.6345 55.7432 36.755 55.7024 36.879 55.7024C37.003 55.7024 37.1236 55.7432 37.2221 55.8185C37.3206 55.8938 37.3915 55.9994 37.4241 56.119V57.621C37.4148 57.7573 37.3565 57.8856 37.2599 57.9821C37.1634 58.0787 37.0351 58.137 36.8988 58.1462Z" fill="#EEA91D" stroke="#EEA91D" stroke-miterlimit="10"/>
<path d="M40.3214 58.1462C40.1716 58.1462 40.0279 58.0867 39.922 57.9808C39.8161 57.8749 39.7566 57.7313 39.7566 57.5815V56.119C39.7891 55.9994 39.8601 55.8938 39.9586 55.8185C40.0571 55.7432 40.1776 55.7024 40.3016 55.7024C40.4256 55.7024 40.5462 55.7432 40.6447 55.8185C40.7432 55.8938 40.8142 55.9994 40.8467 56.119V57.621C40.8374 57.7573 40.7791 57.8856 40.6825 57.9821C40.586 58.0787 40.4577 58.137 40.3214 58.1462Z" fill="#EEA91D" stroke="#EEA91D" stroke-miterlimit="10"/>
<path d="M43.7443 58.1462C43.5945 58.1462 43.4508 58.0867 43.3449 57.9808C43.2389 57.8749 43.1794 57.7313 43.1794 57.5815V56.119C43.212 55.9994 43.2829 55.8938 43.3814 55.8185C43.4799 55.7432 43.6005 55.7024 43.7245 55.7024C43.8485 55.7024 43.969 55.7432 44.0675 55.8185C44.166 55.8938 44.237 55.9994 44.2695 56.119V57.621C44.2603 57.7573 44.202 57.8856 44.1054 57.9821C44.0088 58.0787 43.8805 58.137 43.7443 58.1462Z" fill="#EEA91D" stroke="#EEA91D" stroke-miterlimit="10"/>
<path d="M47.1782 58.1462C47.0284 58.1462 46.8848 58.0867 46.7788 57.9808C46.6729 57.8749 46.6134 57.7313 46.6134 57.5815V56.119C46.6459 55.9994 46.7169 55.8938 46.8154 55.8185C46.9139 55.7432 47.0345 55.7024 47.1584 55.7024C47.2824 55.7024 47.403 55.7432 47.5015 55.8185C47.6 55.8938 47.671 55.9994 47.7035 56.119V57.621C47.6942 57.7573 47.6359 57.8856 47.5394 57.9821C47.4428 58.0787 47.3145 58.137 47.1782 58.1462Z" fill="#EEA91D" stroke="#EEA91D" stroke-miterlimit="10"/>
<path d="M50.5671 58.1462C50.4173 58.1462 50.2737 58.0867 50.1678 57.9808C50.0618 57.8749 50.0023 57.7313 50.0023 57.5815V56.119C50.0348 55.9994 50.1058 55.8938 50.2043 55.8185C50.3028 55.7432 50.4234 55.7024 50.5474 55.7024C50.6714 55.7024 50.7919 55.7432 50.8904 55.8185C50.9889 55.8938 51.0599 55.9994 51.0924 56.119V57.621C51.0832 57.7573 51.0248 57.8856 50.9283 57.9821C50.8317 58.0787 50.7034 58.137 50.5671 58.1462Z" fill="#EEA91D" stroke="#EEA91D" stroke-miterlimit="10"/>
<path d="M54.0012 58.1462C53.8514 58.1462 53.7078 58.0867 53.6018 57.9808C53.4959 57.8749 53.4364 57.7313 53.4364 57.5815V56.119C53.4689 55.9994 53.5399 55.8938 53.6384 55.8185C53.7369 55.7432 53.8575 55.7024 53.9815 55.7024C54.1055 55.7024 54.226 55.7432 54.3245 55.8185C54.423 55.8938 54.494 55.9994 54.5265 56.119V57.621C54.5173 57.7573 54.4589 57.8856 54.3624 57.9821C54.2658 58.0787 54.1375 58.137 54.0012 58.1462Z" fill="#EEA91D" stroke="#EEA91D" stroke-miterlimit="10"/>
<path d="M57.3901 23.9829H56.6389C56.5192 23.9504 56.4136 23.8794 56.3383 23.7809C56.263 23.6825 56.2222 23.5619 56.2222 23.438C56.2222 23.314 56.263 23.1935 56.3383 23.095C56.4136 22.9965 56.5192 22.9256 56.6389 22.8931H57.3901C57.5097 22.9256 57.6153 22.9965 57.6906 23.095C57.766 23.1935 57.8068 23.314 57.8068 23.438C57.8068 23.5619 57.766 23.6825 57.6906 23.7809C57.6153 23.8794 57.5097 23.9504 57.3901 23.9829Z" fill="#EEA91D" stroke="#EEA91D" stroke-miterlimit="10"/>
<path d="M57.39 27.4049H55.9272C55.8434 27.4277 55.7555 27.4308 55.6703 27.4141C55.5852 27.3974 55.505 27.3613 55.436 27.3086C55.367 27.2559 55.3112 27.188 55.2727 27.1102C55.2342 27.0324 55.2142 26.9468 55.2142 26.86C55.2142 26.7732 55.2342 26.6876 55.2727 26.6098C55.3112 26.532 55.367 26.4641 55.436 26.4114C55.505 26.3587 55.5852 26.3226 55.6703 26.3058C55.7555 26.2891 55.8434 26.2923 55.9272 26.3151H57.39C57.5097 26.3476 57.6153 26.4185 57.6906 26.517C57.7659 26.6155 57.8067 26.736 57.8067 26.86C57.8067 26.9839 57.7659 27.1045 57.6906 27.2029C57.6153 27.3014 57.5097 27.3724 57.39 27.4049Z" fill="#EEA91D" stroke="#EEA91D" stroke-miterlimit="10"/>
<path d="M57.39 30.8211H55.9272C55.8434 30.8439 55.7555 30.8471 55.6703 30.8304C55.5852 30.8137 55.505 30.7775 55.436 30.7248C55.367 30.6721 55.3112 30.6042 55.2727 30.5264C55.2342 30.4486 55.2142 30.363 55.2142 30.2762C55.2142 30.1894 55.2342 30.1038 55.2727 30.026C55.3112 29.9482 55.367 29.8803 55.436 29.8276C55.505 29.7749 55.5852 29.7388 55.6703 29.7221C55.7555 29.7054 55.8434 29.7086 55.9272 29.7313H57.39C57.5097 29.7638 57.6153 29.8348 57.6906 29.9333C57.7659 30.0317 57.8067 30.1523 57.8067 30.2762C57.8067 30.4002 57.7659 30.5207 57.6906 30.6192C57.6153 30.7177 57.5097 30.7886 57.39 30.8211Z" fill="#EEA91D" stroke="#EEA91D" stroke-miterlimit="10"/>
<path d="M57.39 34.2432H55.9272C55.8434 34.2659 55.7555 34.2691 55.6703 34.2524C55.5852 34.2356 55.505 34.1995 55.436 34.1468C55.367 34.0941 55.3112 34.0262 55.2727 33.9484C55.2342 33.8706 55.2142 33.785 55.2142 33.6982C55.2142 33.6114 55.2342 33.5258 55.2727 33.448C55.3112 33.3702 55.367 33.3023 55.436 33.2496C55.505 33.1969 55.5852 33.1608 55.6703 33.1441C55.7555 33.1274 55.8434 33.1305 55.9272 33.1533H57.39C57.5097 33.1858 57.6153 33.2568 57.6906 33.3553C57.7659 33.4537 57.8067 33.5743 57.8067 33.6982C57.8067 33.8222 57.7659 33.9427 57.6906 34.0412C57.6153 34.1397 57.5097 34.2106 57.39 34.2432Z" fill="#EEA91D" stroke="#EEA91D" stroke-miterlimit="10"/>
<path d="M57.39 37.6595H55.9272C55.843 37.6841 55.7543 37.6887 55.668 37.673C55.5817 37.6573 55.5003 37.6218 55.4301 37.5692C55.36 37.5166 55.3031 37.4484 55.2639 37.3699C55.2246 37.2915 55.2042 37.2051 55.2042 37.1174C55.2042 37.0298 55.2246 36.9433 55.2639 36.8649C55.3031 36.7865 55.36 36.7183 55.4301 36.6657C55.5003 36.6131 55.5817 36.5775 55.668 36.5618C55.7543 36.5462 55.843 36.5508 55.9272 36.5753H57.39C57.5074 36.6095 57.6104 36.6809 57.6838 36.7786C57.7571 36.8764 57.7967 36.9952 57.7967 37.1174C57.7967 37.2396 57.7571 37.3585 57.6838 37.4562C57.6104 37.554 57.5074 37.6253 57.39 37.6595Z" fill="#EEA91D" stroke="#EEA91D" stroke-miterlimit="10"/>
<path d="M57.39 41.0814H55.9272C55.8434 41.1042 55.7555 41.1073 55.6703 41.0906C55.5852 41.0739 55.505 41.0378 55.436 40.9851C55.367 40.9324 55.3112 40.8645 55.2727 40.7867C55.2342 40.7089 55.2142 40.6233 55.2142 40.5365C55.2142 40.4497 55.2342 40.3641 55.2727 40.2863C55.3112 40.2085 55.367 40.1406 55.436 40.0879C55.505 40.0352 55.5852 39.9991 55.6703 39.9824C55.7555 39.9657 55.8434 39.9688 55.9272 39.9916H57.39C57.5097 40.0241 57.6153 40.095 57.6906 40.1935C57.7659 40.292 57.8067 40.4125 57.8067 40.5365C57.8067 40.6604 57.7659 40.781 57.6906 40.8794C57.6153 40.9779 57.5097 41.0489 57.39 41.0814Z" fill="#EEA91D" stroke="#EEA91D" stroke-miterlimit="10"/>
<path d="M57.39 44.5034H55.9272C55.8434 44.5262 55.7555 44.5293 55.6703 44.5126C55.5852 44.4959 55.505 44.4598 55.436 44.4071C55.367 44.3544 55.3112 44.2865 55.2727 44.2087C55.2342 44.1309 55.2142 44.0453 55.2142 43.9585C55.2142 43.8717 55.2342 43.7861 55.2727 43.7083C55.3112 43.6305 55.367 43.5626 55.436 43.5099C55.505 43.4572 55.5852 43.4211 55.6703 43.4044C55.7555 43.3877 55.8434 43.3908 55.9272 43.4136H57.39C57.5097 43.4461 57.6153 43.517 57.6906 43.6155C57.7659 43.714 57.8067 43.8345 57.8067 43.9585C57.8067 44.0824 57.7659 44.203 57.6906 44.3014C57.6153 44.3999 57.5097 44.4709 57.39 44.5034Z" fill="#EEA91D" stroke="#EEA91D" stroke-miterlimit="10"/>
<path d="M57.39 47.9198H55.9272C55.8434 47.9425 55.7555 47.9457 55.6703 47.929C55.5852 47.9123 55.505 47.8762 55.436 47.8235C55.367 47.7708 55.3112 47.7029 55.2727 47.6251C55.2342 47.5473 55.2142 47.4616 55.2142 47.3749C55.2142 47.2881 55.2342 47.2025 55.2727 47.1247C55.3112 47.0469 55.367 46.979 55.436 46.9263C55.505 46.8735 55.5852 46.8374 55.6703 46.8207C55.7555 46.804 55.8434 46.8072 55.9272 46.8299H57.39C57.5097 46.8625 57.6153 46.9334 57.6906 47.0319C57.7659 47.1304 57.8067 47.2509 57.8067 47.3749C57.8067 47.4988 57.7659 47.6193 57.6906 47.7178C57.6153 47.8163 57.5097 47.8873 57.39 47.9198Z" fill="#EEA91D" stroke="#EEA91D" stroke-miterlimit="10"/>
<path d="M57.39 51.3418H55.9272C55.8434 51.3645 55.7555 51.3677 55.6703 51.351C55.5852 51.3343 55.505 51.2982 55.436 51.2455C55.367 51.1928 55.3112 51.1249 55.2727 51.0471C55.2342 50.9693 55.2142 50.8836 55.2142 50.7969C55.2142 50.7101 55.2342 50.6245 55.2727 50.5467C55.3112 50.4689 55.367 50.401 55.436 50.3483C55.505 50.2955 55.5852 50.2594 55.6703 50.2427C55.7555 50.226 55.8434 50.2292 55.9272 50.2519H57.39C57.5097 50.2844 57.6153 50.3554 57.6906 50.4539C57.7659 50.5524 57.8067 50.6729 57.8067 50.7969C57.8067 50.9208 57.7659 51.0413 57.6906 51.1398C57.6153 51.2383 57.5097 51.3093 57.39 51.3418Z" fill="#EEA91D" stroke="#EEA91D" stroke-miterlimit="10"/>
<path d="M57.39 54.7638H55.9272C55.8434 54.7865 55.7555 54.7897 55.6703 54.773C55.5852 54.7563 55.505 54.7202 55.436 54.6675C55.367 54.6148 55.3112 54.5469 55.2727 54.4691C55.2342 54.3913 55.2142 54.3056 55.2142 54.2189C55.2142 54.1321 55.2342 54.0465 55.2727 53.9687C55.3112 53.8909 55.367 53.823 55.436 53.7703C55.505 53.7176 55.5852 53.6814 55.6703 53.6647C55.7555 53.648 55.8434 53.6512 55.9272 53.6739H57.39C57.5097 53.7064 57.6153 53.7774 57.6906 53.8759C57.7659 53.9744 57.8067 54.0949 57.8067 54.2189C57.8067 54.3428 57.7659 54.4633 57.6906 54.5618C57.6153 54.6603 57.5097 54.7313 57.39 54.7638Z" fill="#EEA91D" stroke="#EEA91D" stroke-miterlimit="10"/>
<path d="M21.5801 51.5855C20.9306 51.581 20.2969 51.3772 19.7589 50.9998C19.2209 50.6224 18.8026 50.0882 18.5567 49.4646C18.3108 48.8409 18.2483 48.1557 18.3771 47.4951C18.5058 46.8346 18.8201 46.2282 19.2803 45.7524L47.5235 16.719C47.6302 16.6172 47.77 16.5611 47.9149 16.5617C48.0598 16.5624 48.199 16.6198 48.3048 16.7225L52.1526 20.7568C52.2056 20.8089 52.2476 20.872 52.276 20.9418C52.3044 21.0117 52.3184 21.087 52.3173 21.1628C52.317 21.2385 52.302 21.3134 52.273 21.3829C52.2441 21.4524 52.2018 21.5152 52.1489 21.5673L23.9114 50.5948C23.6058 50.9124 23.2422 51.1637 22.8419 51.3338C22.4416 51.5039 22.0126 51.5895 21.5801 51.5855ZM47.9085 17.9425L20.0636 46.5665C19.653 46.9892 19.4208 47.5637 19.418 48.1637C19.4152 48.7638 19.6421 49.3403 20.0489 49.7668C20.4617 50.1796 21.012 50.4114 21.5855 50.414C22.159 50.4166 22.7115 50.1898 23.1281 49.7807L50.9788 21.1567L47.9085 17.9425Z" fill="#EEA91D" stroke="#EEA91D" stroke-miterlimit="10"/>
<path d="M46.8677 20.8036C46.7963 20.8044 46.7255 20.7908 46.6595 20.7637C46.5935 20.7365 46.5337 20.6963 46.4836 20.6455L45.8284 19.9905C45.7633 19.8816 45.7368 19.754 45.7531 19.6283C45.7694 19.5025 45.8276 19.3859 45.9182 19.2972C46.0089 19.2085 46.1268 19.1529 46.2529 19.1393C46.379 19.1258 46.5061 19.1551 46.6135 19.2225L47.2687 19.8776C47.3353 19.9567 47.3788 20.0527 47.3946 20.1549C47.4104 20.2571 47.3978 20.3617 47.3582 20.4573C47.3185 20.5528 47.2534 20.6357 47.1699 20.6968C47.0864 20.7578 46.9877 20.7948 46.8846 20.8036H46.8677Z" fill="#EEA91D" stroke="#EEA91D" stroke-miterlimit="10"/>
<path d="M45.3653 22.7914C45.221 22.7878 45.0836 22.7292 44.9812 22.6276L44.0831 21.7354C44.021 21.628 43.996 21.5032 44.0119 21.3802C44.0278 21.2572 44.0838 21.1428 44.1712 21.0548C44.2586 20.9668 44.3726 20.91 44.4955 20.8931C44.6184 20.8763 44.7434 20.9005 44.8513 20.9618L45.7493 21.8596C45.8175 21.9387 45.8625 22.0352 45.8791 22.1382C45.8958 22.2413 45.8836 22.347 45.8438 22.4435C45.804 22.5401 45.7382 22.6237 45.6537 22.6851C45.5692 22.7465 45.4694 22.7833 45.3653 22.7914Z" fill="#EEA91D" stroke="#EEA91D" stroke-miterlimit="10"/>
<path d="M43.3828 24.3047C43.2374 24.3042 43.0978 24.2475 42.9931 24.1466L42.3379 23.486C42.2628 23.4425 42.1987 23.3824 42.1506 23.3102C42.1025 23.2379 42.0717 23.1556 42.0606 23.0696C42.0494 22.9836 42.0583 22.8961 42.0864 22.8141C42.1146 22.732 42.1612 22.6575 42.2228 22.5964C42.2844 22.5353 42.3592 22.4892 42.4415 22.4617C42.5238 22.4342 42.6113 22.4259 42.6973 22.4377C42.7832 22.4495 42.8653 22.4809 42.9372 22.5295C43.0091 22.5781 43.0688 22.6426 43.1117 22.718L43.7668 23.373C43.8653 23.4777 43.9202 23.6161 43.9202 23.7598C43.9202 23.9036 43.8653 24.0419 43.7668 24.1466C43.6636 24.2462 43.5262 24.3027 43.3828 24.3047Z" fill="#EEA91D" stroke="#EEA91D" stroke-miterlimit="10"/>
<path d="M41.8746 26.2756C41.7312 26.2735 41.5938 26.217 41.4906 26.1174L40.5925 25.2196C40.5174 25.1762 40.4533 25.116 40.4052 25.0438C40.3571 24.9716 40.3263 24.8893 40.3152 24.8033C40.3041 24.7172 40.3129 24.6298 40.3411 24.5477C40.3692 24.4657 40.4159 24.3912 40.4774 24.3301C40.539 24.269 40.6139 24.2228 40.6961 24.1953C40.7784 24.1678 40.8659 24.1596 40.9519 24.1713C41.0379 24.1831 41.12 24.2145 41.1918 24.2631C41.2637 24.3117 41.3234 24.3762 41.3663 24.4516L42.2643 25.3495C42.3311 25.429 42.3747 25.5254 42.3902 25.6281C42.4057 25.7308 42.3926 25.8358 42.3523 25.9315C42.3121 26.0272 42.2462 26.11 42.1619 26.1707C42.0776 26.2314 41.9782 26.2677 41.8746 26.2756Z" fill="#EEA91D" stroke="#EEA91D" stroke-miterlimit="10"/>
<path d="M39.8922 27.7776C39.8208 27.7784 39.75 27.7648 39.684 27.7376C39.618 27.7104 39.5582 27.6703 39.5081 27.6194L38.8529 26.9644C38.7908 26.857 38.7657 26.7322 38.7816 26.6092C38.7976 26.4862 38.8535 26.3718 38.9409 26.2838C39.0284 26.1958 39.1423 26.139 39.2652 26.1222C39.3882 26.1053 39.5132 26.1295 39.621 26.1908L40.2762 26.8515C40.3428 26.9306 40.3864 27.0266 40.4022 27.1288C40.4179 27.2311 40.4053 27.3357 40.3657 27.4312C40.3261 27.5268 40.261 27.6096 40.1774 27.6707C40.0939 27.7318 39.9953 27.7687 39.8922 27.7776Z" fill="#EEA91D" stroke="#EEA91D" stroke-miterlimit="10"/>
<path d="M38.3899 29.7652C38.2457 29.7617 38.1082 29.7031 38.0058 29.6015L37.1078 28.7093C37.0457 28.6019 37.0206 28.4771 37.0365 28.3541C37.0524 28.2311 37.1084 28.1167 37.1958 28.0287C37.2832 27.9406 37.3972 27.8838 37.5201 27.867C37.6431 27.8502 37.7681 27.8743 37.8759 27.9357L38.774 28.8335C38.8422 28.9126 38.8871 29.009 38.9038 29.1121C38.9205 29.2152 38.9082 29.3209 38.8684 29.4174C38.8286 29.514 38.7628 29.5976 38.6784 29.659C38.5939 29.7204 38.494 29.7572 38.3899 29.7652Z" fill="#EEA91D" stroke="#EEA91D" stroke-miterlimit="10"/>
<path d="M36.4073 31.2673C36.3355 31.2673 36.2645 31.2529 36.1985 31.2247C36.1325 31.1966 36.0729 31.1553 36.0232 31.1035L35.3624 30.4485C35.2873 30.405 35.2232 30.3449 35.1751 30.2727C35.127 30.2005 35.0962 30.1182 35.0851 30.0321C35.074 29.9461 35.0828 29.8587 35.111 29.7766C35.1391 29.6945 35.1858 29.6201 35.2473 29.559C35.3089 29.4978 35.3838 29.4517 35.466 29.4242C35.5483 29.3967 35.6358 29.3885 35.7218 29.4002C35.8078 29.412 35.8899 29.4434 35.9617 29.492C36.0336 29.5406 36.0933 29.6051 36.1362 29.6805L36.7914 30.3355C36.8882 30.44 36.9421 30.5771 36.9421 30.7195C36.9421 30.8619 36.8882 30.9991 36.7914 31.1035C36.689 31.2051 36.5516 31.2637 36.4073 31.2673Z" fill="#EEA91D" stroke="#EEA91D" stroke-miterlimit="10"/>
<path d="M34.905 33.2493C34.7596 33.2487 34.62 33.1921 34.5153 33.0912L33.6229 32.2103C33.5632 32.103 33.5401 31.9792 33.5571 31.8576C33.5741 31.736 33.6302 31.6233 33.7171 31.5365C33.8039 31.4497 33.9166 31.3935 34.0383 31.3765C34.1599 31.3595 34.2837 31.3826 34.391 31.4423L35.2891 32.3345C35.3875 32.4392 35.4424 32.5776 35.4424 32.7213C35.4424 32.865 35.3875 33.0034 35.2891 33.1081C35.1832 33.2015 35.0462 33.2519 34.905 33.2493Z" fill="#EEA91D" stroke="#EEA91D" stroke-miterlimit="10"/>
<path d="M32.9168 34.7513C32.7734 34.7493 32.636 34.6928 32.5327 34.5932L31.8776 33.9382C31.8154 33.8308 31.7904 33.706 31.8063 33.583C31.8222 33.4599 31.8782 33.3456 31.9656 33.2576C32.053 33.1695 32.167 33.1127 32.2899 33.0959C32.4128 33.0791 32.5379 33.1032 32.6457 33.1645L33.3009 33.8252C33.3977 33.9296 33.4516 34.0668 33.4516 34.2092C33.4516 34.3516 33.3977 34.4888 33.3009 34.5932C33.251 34.6443 33.1912 34.6846 33.1251 34.7118C33.0591 34.739 32.9882 34.7524 32.9168 34.7513Z" fill="#EEA91D" stroke="#EEA91D" stroke-miterlimit="10"/>
<path d="M31.4144 36.7277C31.343 36.7285 31.2722 36.7149 31.2062 36.6878C31.1402 36.6606 31.0804 36.6204 31.0303 36.5696L30.1323 35.6717C30.0354 35.5673 29.9816 35.4302 29.9816 35.2878C29.9816 35.1453 30.0354 35.0082 30.1323 34.9038C30.237 34.8053 30.3754 34.7505 30.5192 34.7505C30.6629 34.7505 30.8013 34.8053 30.906 34.9038L31.7985 35.8016C31.865 35.8808 31.9086 35.9767 31.9244 36.079C31.9402 36.1812 31.9276 36.2858 31.8879 36.3814C31.8483 36.4769 31.7832 36.5598 31.6997 36.6208C31.6161 36.6819 31.5175 36.7189 31.4144 36.7277Z" fill="#EEA91D" stroke="#EEA91D" stroke-miterlimit="10"/>
<path d="M29.4319 38.2412C29.2876 38.2376 29.1502 38.179 29.0478 38.0774L28.387 37.4224C28.3256 37.3145 28.3015 37.1895 28.3183 37.0666C28.3351 36.9438 28.392 36.8298 28.48 36.7424C28.5681 36.655 28.6824 36.5991 28.8055 36.5832C28.9285 36.5672 29.0534 36.5923 29.1608 36.6544L29.8159 37.3094C29.8841 37.3885 29.9291 37.485 29.9458 37.588C29.9624 37.6911 29.9502 37.7968 29.9104 37.8933C29.8706 37.9899 29.8048 38.0735 29.7203 38.1349C29.6359 38.1963 29.536 38.2331 29.4319 38.2412Z" fill="#EEA91D" stroke="#EEA91D" stroke-miterlimit="10"/>
<path d="M27.9295 40.2232C27.7861 40.2212 27.6488 40.1646 27.5455 40.0651L26.6474 39.1672C26.5666 39.1271 26.4966 39.0683 26.4432 38.9957C26.3898 38.923 26.3546 38.8386 26.3405 38.7495C26.3265 38.6605 26.3339 38.5694 26.3623 38.4838C26.3906 38.3982 26.4391 38.3206 26.5036 38.2576C26.568 38.1946 26.6467 38.1479 26.7329 38.1215C26.8191 38.0951 26.9104 38.0897 26.9992 38.1057C27.0879 38.1218 27.1715 38.1589 27.2429 38.2139C27.3144 38.2689 27.3717 38.3402 27.4099 38.4218L28.308 39.3197C28.4064 39.4244 28.4613 39.5627 28.4613 39.7065C28.4613 39.8502 28.4064 39.9886 28.308 40.0933C28.2019 40.1813 28.0673 40.2275 27.9295 40.2232Z" fill="#EEA91D" stroke="#EEA91D" stroke-miterlimit="10"/>
<path d="M25.9413 41.7253C25.7979 41.7233 25.6606 41.6668 25.5573 41.5672L24.9021 40.9122C24.84 40.8048 24.8149 40.68 24.8308 40.557C24.8468 40.4339 24.9027 40.3196 24.9901 40.2316C25.0775 40.1435 25.1915 40.0867 25.3144 40.0699C25.4374 40.0531 25.5624 40.0772 25.6702 40.1385L26.3311 40.7936C26.4296 40.8983 26.4844 41.0366 26.4844 41.1804C26.4844 41.3241 26.4296 41.4625 26.3311 41.5672C26.2264 41.6681 26.0868 41.7247 25.9413 41.7253Z" fill="#EEA91D" stroke="#EEA91D" stroke-miterlimit="10"/>
<path d="M24.439 43.7072C24.2955 43.7052 24.1582 43.6487 24.0549 43.5491L23.1569 42.6513C23.0955 42.5434 23.0714 42.4184 23.0882 42.2955C23.105 42.1726 23.1619 42.0587 23.2499 41.9713C23.3379 41.8839 23.4523 41.8279 23.5754 41.812C23.6984 41.7961 23.8233 41.8212 23.9307 41.8833L24.8231 42.7811C24.9199 42.8856 24.9737 43.0227 24.9737 43.1651C24.9737 43.3075 24.9199 43.4447 24.8231 43.5491C24.7732 43.6002 24.7134 43.6405 24.6473 43.6677C24.5813 43.6949 24.5104 43.7083 24.439 43.7072Z" fill="#EEA91D" stroke="#EEA91D" stroke-miterlimit="10"/>
<path d="M22.4564 45.1981C22.3851 45.1989 22.3143 45.1853 22.2483 45.1581C22.1823 45.131 22.1224 45.0908 22.0723 45.04L21.4172 44.3849C21.3575 44.2777 21.3344 44.1539 21.3514 44.0323C21.3684 43.9107 21.4245 43.798 21.5114 43.7112C21.5982 43.6244 21.711 43.5682 21.8326 43.5512C21.9542 43.5342 22.078 43.5573 22.1853 43.617L22.8405 44.272C22.9071 44.3512 22.9507 44.4471 22.9664 44.5494C22.9822 44.6516 22.9696 44.7562 22.93 44.8517C22.8903 44.9473 22.8252 45.0301 22.7417 45.0912C22.6582 45.1523 22.5595 45.1893 22.4564 45.1981Z" fill="#EEA91D" stroke="#EEA91D" stroke-miterlimit="10"/>
</svg>
