<svg width="80" height="80" viewBox="0 0 80 80" fill="none" xmlns="http://www.w3.org/2000/svg">
<circle cx="40" cy="40" r="39" stroke="#EEA91D" stroke-width="2"/>
<path d="M49.0804 34.2304L24.475 58.8358L21.1642 55.525L35.9821 40.7071L36.6892 40L35.9821 39.2929L32.1571 35.4679L31.45 34.7608L30.7429 35.4679L29.875 36.3358L27.7134 34.1741L27.2267 33.6875L26.0063 32.467L25.5196 31.9804L23.4142 29.875L30.6946 22.5946C31.3612 21.928 32.054 21.4679 32.7707 21.1875C33.5205 20.8941 34.2783 20.75 35.05 20.75C35.8217 20.75 36.5795 20.8941 37.3294 21.1875C37.7794 21.3636 38.2201 21.6106 38.6507 21.935L34.2304 26.3554L33.5233 27.0625L34.2304 27.7696L36.3358 29.875L35.4679 30.7429L34.7608 31.45L35.4679 32.1571L39.2929 35.9821L40 36.6892L40.7071 35.9821L45.7696 30.9196L46.2199 30.4693L46.0023 29.8707C45.8696 29.5057 45.761 29.1212 45.6773 28.7163L45.6767 28.7132C45.596 28.3293 45.5563 27.9482 45.5563 27.5687C45.5563 25.6127 46.2168 24.0037 47.5426 22.6778C48.8668 21.3537 50.4749 20.6937 52.4313 20.6937C52.8885 20.6937 53.3169 20.7359 53.7184 20.8174L49.3054 25.2304L48.5983 25.9375L49.3054 26.6446L53.3554 30.6946L54.0625 31.4017L54.7696 30.6946L59.2034 26.2608C59.2713 26.6698 59.3063 27.1053 59.3063 27.5687C59.3063 29.5251 58.6463 31.1332 57.3221 32.4574C55.9963 33.7832 54.3873 34.4437 52.4313 34.4437C52.0371 34.4437 51.6421 34.4109 51.2457 34.3448C50.8812 34.2841 50.5338 34.1782 50.2013 34.0271L49.5704 33.7403L49.0804 34.2304ZM26.0063 34.8812V39.0795L25.4313 39.6545L20.0392 34.2625L20.6142 33.6875H24.8125H26.0063V34.8812ZM55.525 58.8358L44.6205 47.9312L47.9313 44.6204L58.8358 55.525L55.525 58.8358Z" stroke="#EEA91D" stroke-width="2"/>
</svg>
