<svg width="66" height="66" viewBox="0 0 66 66" fill="none" xmlns="http://www.w3.org/2000/svg">
<rect width="66" height="66" rx="33" transform="matrix(-1 0 0 1 66 0)" fill="#242424"/>
<path d="M43.781 34.1642L23.9422 33.9201L27.266 37.932C27.3429 38.0251 27.4009 38.1324 27.4366 38.248C27.4722 38.3636 27.4849 38.485 27.4739 38.6055C27.4515 38.8488 27.3339 39.0733 27.1469 39.2295C26.96 39.3856 26.7189 39.4608 26.4768 39.4383C26.2346 39.4159 26.0113 39.2977 25.8559 39.1098L21.2776 33.5889C21.2468 33.545 21.2193 33.4988 21.1952 33.4509C21.1952 33.4049 21.1495 33.3772 21.1311 33.3312C21.0896 33.2257 21.0679 33.1134 21.067 33C21.0679 32.8865 21.0896 32.7742 21.1311 32.6687C21.1311 32.6227 21.1769 32.5951 21.1952 32.5491C21.2193 32.5011 21.2468 32.455 21.2776 32.4111L25.8559 26.8901C25.942 26.7863 26.0498 26.7027 26.1716 26.6455C26.2935 26.5882 26.4264 26.5587 26.5609 26.5589C26.7749 26.5585 26.9822 26.6333 27.1469 26.7705C27.2397 26.8478 27.3163 26.9426 27.3725 27.0497C27.4287 27.1567 27.4633 27.2739 27.4743 27.3944C27.4854 27.5149 27.4727 27.6364 27.4369 27.752C27.4012 27.8676 27.3431 27.9749 27.266 28.0679L23.9422 32.0798L43.781 32.3239C44.0239 32.3239 44.2568 32.4208 44.4285 32.5934C44.6002 32.7659 44.6967 33 44.6967 33.244C44.6967 33.4881 44.6002 33.7221 44.4285 33.8947C44.2568 34.0672 44.0239 34.1642 43.781 34.1642Z" fill="white"/>
</svg>
