<svg width="24" height="14" viewBox="0 0 24 14" fill="none" xmlns="http://www.w3.org/2000/svg">
<path d="M22.781 8.16418L2.94218 7.92014L6.26599 11.932C6.34294 12.0251 6.40091 12.1324 6.43657 12.248C6.47224 12.3636 6.48491 12.485 6.47385 12.6055C6.45153 12.8488 6.33394 13.0733 6.14695 13.2295C5.95996 13.3856 5.71889 13.4608 5.47676 13.4383C5.23464 13.4159 5.01131 13.2977 4.85589 13.1098L0.277647 7.58888C0.246845 7.54497 0.219299 7.49884 0.195238 7.45086C0.195238 7.40485 0.149456 7.37724 0.131142 7.33124C0.0896397 7.22573 0.0679092 7.11343 0.0670471 6.99998C0.0679092 6.88653 0.0896397 6.77423 0.131142 6.66872C0.131142 6.62272 0.176924 6.59511 0.195238 6.5491C0.219299 6.50113 0.246845 6.45499 0.277647 6.41108L4.85589 0.890127C4.94198 0.786257 5.04979 0.702725 5.17164 0.645472C5.2935 0.588219 5.42642 0.558651 5.56093 0.55887C5.77488 0.55845 5.98221 0.633328 6.14695 0.770507C6.23967 0.847753 6.31631 0.942622 6.37249 1.04968C6.42866 1.15674 6.46327 1.27388 6.47433 1.3944C6.48538 1.51492 6.47267 1.63645 6.43692 1.75202C6.40117 1.8676 6.34308 1.97495 6.26599 2.06793L2.94218 6.07982L22.781 6.32386C23.0239 6.32386 23.2568 6.42081 23.4285 6.59337C23.6002 6.76593 23.6967 6.99998 23.6967 7.24402C23.6967 7.48806 23.6002 7.72211 23.4285 7.89467C23.2568 8.06724 23.0239 8.16418 22.781 8.16418Z" fill="white"/>
</svg>
