<svg width="66" height="66" viewBox="0 0 66 66" fill="none" xmlns="http://www.w3.org/2000/svg">
<rect width="66" height="66" rx="33" fill="#242424"/>
<path d="M22.219 34.1642L42.0578 33.9201L38.734 37.932C38.6571 38.0251 38.5991 38.1324 38.5634 38.248C38.5278 38.3636 38.5151 38.485 38.5261 38.6055C38.5485 38.8488 38.6661 39.0733 38.8531 39.2295C39.04 39.3856 39.2811 39.4608 39.5232 39.4383C39.7654 39.4159 39.9887 39.2977 40.1441 39.1098L44.7224 33.5889C44.7532 33.545 44.7807 33.4988 44.8048 33.4509C44.8048 33.4049 44.8505 33.3772 44.8689 33.3312C44.9104 33.2257 44.9321 33.1134 44.933 33C44.9321 32.8865 44.9104 32.7742 44.8689 32.6687C44.8689 32.6227 44.8231 32.5951 44.8048 32.5491C44.7807 32.5011 44.7532 32.455 44.7224 32.4111L40.1441 26.8901C40.058 26.7863 39.9502 26.7027 39.8284 26.6455C39.7065 26.5882 39.5736 26.5587 39.4391 26.5589C39.2251 26.5585 39.0178 26.6333 38.8531 26.7705C38.7603 26.8478 38.6837 26.9426 38.6275 27.0497C38.5713 27.1567 38.5367 27.2739 38.5257 27.3944C38.5146 27.5149 38.5273 27.6364 38.5631 27.752C38.5988 27.8676 38.6569 27.9749 38.734 28.0679L42.0578 32.0798L22.219 32.3239C21.9761 32.3239 21.7432 32.4208 21.5715 32.5934C21.3998 32.7659 21.3033 33 21.3033 33.244C21.3033 33.4881 21.3998 33.7221 21.5715 33.8947C21.7432 34.0672 21.9761 34.1642 22.219 34.1642Z" fill="white"/>
</svg>
