<svg width="24" height="14" viewBox="0 0 24 14" fill="none" xmlns="http://www.w3.org/2000/svg">
<path d="M1.21899 8.16418L21.0578 7.92014L17.734 11.932C17.6571 12.0251 17.5991 12.1324 17.5634 12.248C17.5278 12.3636 17.5151 12.485 17.5261 12.6055C17.5485 12.8488 17.6661 13.0733 17.8531 13.2295C18.04 13.3856 18.2811 13.4608 18.5232 13.4383C18.7654 13.4159 18.9887 13.2977 19.1441 13.1098L23.7224 7.58888C23.7532 7.54497 23.7807 7.49884 23.8048 7.45086C23.8048 7.40485 23.8505 7.37724 23.8689 7.33124C23.9104 7.22573 23.9321 7.11343 23.933 6.99998C23.9321 6.88653 23.9104 6.77423 23.8689 6.66872C23.8689 6.62272 23.8231 6.59511 23.8048 6.5491C23.7807 6.50113 23.7532 6.45499 23.7224 6.41108L19.1441 0.890127C19.058 0.786257 18.9502 0.702725 18.8284 0.645472C18.7065 0.588219 18.5736 0.558651 18.4391 0.55887C18.2251 0.55845 18.0178 0.633328 17.8531 0.770507C17.7603 0.847753 17.6837 0.942622 17.6275 1.04968C17.5713 1.15674 17.5367 1.27388 17.5257 1.3944C17.5146 1.51492 17.5273 1.63645 17.5631 1.75202C17.5988 1.8676 17.6569 1.97495 17.734 2.06793L21.0578 6.07982L1.21899 6.32386C0.976148 6.32386 0.743249 6.42081 0.571532 6.59337C0.399815 6.76593 0.303345 6.99998 0.303345 7.24402C0.303345 7.48806 0.399815 7.72211 0.571532 7.89467C0.743249 8.06724 0.976148 8.16418 1.21899 8.16418Z" fill="white"/>
</svg>
