<svg width="48" height="49" viewBox="0 0 48 49" fill="none" xmlns="http://www.w3.org/2000/svg">
<circle cx="23.7864" cy="24.4013" r="23.7864" fill="#EEA91D"/>
<g clip-path="url(#clip0_324_939)">
<path d="M11.1499 14.8318C11.1531 14.0658 11.4377 13.3278 11.9494 12.758C12.2362 12.4455 12.5847 12.1959 12.9728 12.025C13.3609 11.854 13.7803 11.7654 14.2044 11.7648H18.3083C19.0585 11.7631 19.7829 12.038 20.343 12.5371C20.9031 13.0361 21.2595 13.7241 21.3441 14.4695C21.4474 15.3757 21.6335 16.2706 21.9 17.1429C22.0643 17.6736 22.0807 18.2391 21.9475 18.7784C21.8143 19.3177 21.5366 19.8105 21.1442 20.2037L19.4826 21.8652C21.2394 25.0583 23.8698 27.6845 27.0658 29.4359L28.7273 27.7744C29.1206 27.382 29.6133 27.1042 30.1527 26.971C30.692 26.8379 31.2574 26.8543 31.7881 27.0185C32.6612 27.2821 33.5558 27.4681 34.4616 27.5745C35.2075 27.6577 35.8963 28.0137 36.3956 28.5741C36.8949 29.1345 37.1693 29.8597 37.1663 30.6102V34.7079C37.1665 35.1336 37.0776 35.5547 36.9055 35.9441C36.7334 36.3335 36.4818 36.6826 36.1668 36.9691C35.8497 37.2535 35.4778 37.4701 35.0739 37.6054C34.67 37.7408 34.2426 37.7921 33.8182 37.7561C27.9906 37.2167 22.5353 34.6556 18.3976 30.5167C14.2598 26.3778 11.7003 20.9218 11.1624 15.0941C11.1624 15.0004 11.1624 14.9067 11.1624 14.8193L11.1499 14.8318ZM20.0011 18.0487C20.0015 17.943 19.9868 17.8378 19.9574 17.7364C19.6525 16.7446 19.4433 15.726 19.3327 14.6944C19.3035 14.4454 19.1835 14.2159 18.9956 14.05C18.8077 13.884 18.5652 13.7932 18.3145 13.7949H14.1982C14.0564 13.7943 13.9161 13.8242 13.7868 13.8823C13.6576 13.9405 13.5422 14.0257 13.4486 14.1322C13.3501 14.2378 13.2753 14.3632 13.2289 14.4999C13.1826 14.6367 13.1659 14.7818 13.18 14.9255C13.6748 20.28 16.0272 25.2928 19.8296 29.0952C23.632 32.8976 28.6447 35.25 33.9993 35.7448C34.143 35.758 34.2878 35.741 34.4245 35.6947C34.5611 35.6484 34.6865 35.574 34.7926 35.4762C34.8999 35.3819 34.9855 35.2655 35.0438 35.1351C35.102 35.0047 35.1313 34.8632 35.1299 34.7204V30.6227C35.1316 30.372 35.0408 30.1296 34.8748 29.9417C34.7089 29.7538 34.4794 29.6338 34.2304 29.6046C33.1978 29.4873 32.1777 29.2783 31.1822 28.9799C31.005 28.9234 30.8156 28.9168 30.6349 28.9609C30.4541 29.0049 30.2891 29.098 30.1578 29.2298L27.4531 31.9345L26.8284 31.6097C22.7158 29.5625 19.3793 26.2349 17.3214 22.1276L16.9966 21.4717L19.7013 18.767C19.7953 18.6727 19.8697 18.5606 19.9201 18.4373C19.9705 18.314 19.9959 18.1819 19.9948 18.0487H20.0011Z" fill="white"/>
</g>
<defs>
<clipPath id="clip0_324_939">
<rect width="26.0163" height="26.0163" fill="white" transform="translate(11.1499 11.7648)"/>
</clipPath>
</defs>
</svg>
