<svg width="74" height="72" viewBox="0 0 74 72" fill="none" xmlns="http://www.w3.org/2000/svg">
<path d="M2.12134 66.6098V72H73.9868V19.1393H43.3969V31.9378H40.529C40.3033 31.9378 40.0868 32.027 39.9272 32.1857C39.7676 32.3444 39.6778 32.5597 39.6778 32.7841C39.6778 33.0086 39.7676 33.2238 39.9272 33.3825C40.0868 33.5412 40.3033 33.6304 40.529 33.6304H57.9062V44.7234H46.6968C46.4711 44.7234 46.2545 44.8125 46.0949 44.9712C45.9353 45.1299 45.8456 45.3452 45.8456 45.5697C45.8456 45.7941 45.9353 46.0094 46.0949 46.1681C46.2545 46.3268 46.4711 46.4159 46.6968 46.4159H72.3499V57.5089H44.2219C43.9961 57.5089 43.7796 57.5981 43.6199 57.7568C43.4603 57.9155 43.3706 58.1307 43.3706 58.3552C43.3706 58.5796 43.4603 58.7949 43.6199 58.9536C43.7796 59.1123 43.9961 59.2015 44.2219 59.2015H57.8406V70.3074H30.6554V63.6543C30.6554 63.5431 30.6334 63.4331 30.5906 63.3304C30.5478 63.2277 30.4851 63.1345 30.4061 63.0559C30.327 62.9773 30.2332 62.9149 30.1299 62.8724C30.0266 62.8299 29.916 62.808 29.8042 62.808C29.6924 62.808 29.5818 62.8299 29.4785 62.8724C29.3752 62.9149 29.2814 62.9773 29.2024 63.0559C29.1233 63.1345 29.0606 63.2277 29.0178 63.3304C28.975 63.4331 28.953 63.5431 28.953 63.6543V70.3074H3.86297V68.8362C4.06777 68.8929 4.27899 68.9235 4.49154 68.9273C4.74493 68.9267 4.99667 68.8872 5.23793 68.8102L39.4815 57.4438C40.6492 57.0574 41.7009 56.3861 42.5402 55.4912C43.3795 54.5962 43.9797 53.5063 44.2859 52.3211C44.592 51.1359 44.5943 49.8934 44.2926 48.7071C43.9909 47.5208 43.3947 46.4286 42.5588 45.5306L34.466 36.8593L12.0081 58.251C11.9293 58.3285 11.8667 58.4208 11.824 58.5225C11.7814 58.6242 11.7594 58.7333 11.7594 58.8434C11.7594 58.9536 11.7814 59.0627 11.824 59.1644C11.8667 59.2661 11.9293 59.3583 12.0081 59.4358C12.0871 59.5146 12.181 59.577 12.2844 59.6196C12.3877 59.6623 12.4985 59.6842 12.6104 59.6842C12.7223 59.6842 12.8331 59.6623 12.9365 59.6196C13.0399 59.577 13.1338 59.5146 13.2128 59.4358L34.4137 39.242L41.3278 46.6503C41.9605 47.3403 42.4106 48.176 42.6372 49.0821C42.8639 49.9883 42.8601 50.9362 42.6262 51.8405C42.3923 52.7448 41.9357 53.577 41.2975 54.262C40.6594 54.947 39.8597 55.4633 38.9707 55.7642L4.66174 67.2478C4.54576 67.2856 4.42133 67.2898 4.30304 67.2598C4.18474 67.2299 4.07752 67.167 3.99392 67.0785C3.9095 66.9924 3.85309 66.883 3.83207 66.7646C3.81105 66.6461 3.8264 66.5241 3.87607 66.4145L19.4461 27.9928C19.5889 27.6467 19.8165 27.3418 20.1083 27.1057C20.4002 26.8696 20.7468 26.71 21.1166 26.6414C21.4864 26.5727 21.8677 26.5973 22.2255 26.7129C22.5833 26.8284 22.9063 27.0312 23.165 27.3027L31.8208 36.5989L37.0588 31.6253L34.6886 19.8163L38.6171 16.0796C38.6963 16.001 38.7591 15.9076 38.802 15.8049C38.8449 15.7021 38.867 15.5919 38.867 15.4807C38.867 15.3694 38.8449 15.2593 38.802 15.1565C38.7591 15.0537 38.6963 14.9604 38.6171 14.8818C38.4543 14.7289 38.2388 14.6437 38.0148 14.6437C37.7908 14.6437 37.5753 14.7289 37.4124 14.8818L32.8161 19.2564L35.1863 31.0655L31.8994 34.2033L24.4091 26.183C23.9595 25.6953 23.3926 25.329 22.7616 25.1187C22.1307 24.9084 21.4564 24.8609 20.8019 24.9806C20.1475 25.1003 19.5343 25.3834 19.02 25.8032C18.5057 26.2231 18.1071 26.7659 17.8616 27.3809L2.29155 65.7374C2.17842 66.0145 2.12063 66.3108 2.12134 66.6098ZM45.0992 20.8319H72.2976V31.9378H45.0992V20.8319ZM72.2845 70.3074H59.543V59.2015H72.2845V70.3074ZM59.543 44.7234V33.6304H72.2845V44.7234H59.543Z" fill="#191716"/>
<path d="M37.3602 15.8688C37.6389 16.2878 38.0034 16.6435 38.4299 16.9128C38.8564 17.182 39.3353 17.3587 39.8352 17.4312C40.0008 17.4441 40.1672 17.4441 40.3328 17.4312C41.1847 17.4339 42.0085 17.1285 42.6506 16.5719L50.8743 9.45C51.6642 8.72084 52.1378 7.7148 52.1951 6.64468C52.2523 5.57455 51.8887 4.52425 51.1811 3.71587C50.4736 2.9075 49.4775 2.40445 48.4036 2.31312C47.3297 2.22179 46.2621 2.54935 45.4267 3.2265L37.334 10.2182C36.6956 10.7778 36.2791 11.5454 36.159 12.3831C36.039 13.2208 36.2234 14.0736 36.6793 14.7881L37.3602 15.8688ZM38.4471 11.5332L46.5399 4.5415C46.985 4.15274 47.558 3.93966 48.1505 3.94257C48.7994 3.94416 49.4211 4.20171 49.8791 4.65867C50.1181 4.89337 50.3057 5.17469 50.4301 5.48495C50.5545 5.79521 50.613 6.1277 50.6019 6.46152C50.5909 6.79534 50.5104 7.12327 50.3657 7.4247C50.2211 7.72614 50.0153 7.99456 49.7613 8.2131L41.5376 15.335C41.336 15.5031 41.1017 15.628 40.8493 15.7019C40.5969 15.7759 40.332 15.7972 40.0709 15.7646C39.8062 15.7294 39.5522 15.638 39.3262 15.4964C39.1003 15.3549 38.9076 15.1666 38.7614 14.9444L38.0804 13.9028C37.8484 13.5289 37.7579 13.0851 37.8251 12.6509C37.8923 12.2167 38.1128 11.8204 38.4471 11.5332Z" fill="#191716"/>
</svg>
