<svg width="48" height="49" viewBox="0 0 48 49" fill="none" xmlns="http://www.w3.org/2000/svg">
<circle cx="23.6341" cy="24.545" r="23.6341" fill="#EEA91D"/>
<g clip-path="url(#clip0_324_968)">
<g clip-path="url(#clip1_324_968)">
<path d="M11.0786 38.1199L12.9546 31.1404C11.4416 28.4187 10.961 25.2427 11.6008 22.1952C12.2405 19.1476 13.9579 16.433 16.4376 14.5495C18.9173 12.666 21.9931 11.7398 25.1005 11.941C28.208 12.1422 31.1386 13.4573 33.3547 15.6449C35.5708 17.8325 36.9237 20.7459 37.1651 23.8505C37.4066 26.9551 36.5203 30.0426 34.669 32.5465C32.8177 35.0504 30.1256 36.8027 27.0866 37.4818C24.0476 38.161 20.8656 37.7215 18.1245 36.2439L11.0786 38.1199ZM18.4643 33.622L18.9 33.8805C21.1023 35.1953 23.7097 35.6587 26.2301 35.1832C28.7506 34.7078 31.01 33.3265 32.582 31.2998C34.1541 29.2731 34.9301 26.7412 34.7638 24.1817C34.5974 21.6222 33.5002 19.212 31.6791 17.4059C29.8579 15.5997 27.4388 14.5224 24.878 14.3772C22.3172 14.232 19.7918 15.029 17.7781 16.6177C15.7645 18.2065 14.4019 20.4772 13.9473 23.0015C13.4928 25.5258 13.9777 28.1292 15.3106 30.3206L15.5839 30.7711L14.5351 34.6708L18.4643 33.622Z" fill="white"/>
<path fill-rule="evenodd" clip-rule="evenodd" d="M29.0408 26.709C28.7851 26.5035 28.486 26.3588 28.1661 26.2858C27.8463 26.2129 27.514 26.2136 27.1944 26.288C26.7144 26.4874 26.4042 27.2334 26.094 27.6175C26.0273 27.7083 25.9298 27.7719 25.8198 27.7963C25.7098 27.8208 25.5946 27.8045 25.4957 27.7504C23.7391 27.0637 22.2678 25.8007 21.3228 24.1683C21.2418 24.0666 21.2035 23.9373 21.2159 23.8078C21.2283 23.6783 21.2905 23.5587 21.3893 23.4741C21.7353 23.1316 21.9893 22.7074 22.1279 22.2407C22.1586 21.7259 22.0407 21.2132 21.7881 20.7636C21.5929 20.1332 21.2213 19.572 20.7172 19.1461C20.4561 19.0251 20.1653 18.983 19.8806 19.025C19.5958 19.0669 19.3296 19.1912 19.1145 19.3824C18.7446 19.6996 18.4509 20.096 18.2553 20.5422C18.0596 20.9885 17.9671 21.4731 17.9845 21.96C17.9856 22.2341 18.0204 22.5069 18.0879 22.7725C18.2594 23.4105 18.5231 24.0201 18.8708 24.5819C19.1216 25.0123 19.3953 25.429 19.6906 25.8301C20.6504 27.1477 21.8569 28.2664 23.2431 29.1241C23.9387 29.56 24.6822 29.9144 25.4588 30.1803C26.2656 30.546 27.1563 30.6864 28.0364 30.5865C28.5379 30.5106 29.013 30.3126 29.4199 30.01C29.8269 29.7073 30.1533 29.3093 30.3703 28.8509C30.4978 28.5739 30.5365 28.2644 30.4811 27.9646C30.3629 27.3516 29.5357 26.9897 29.0408 26.709Z" fill="white"/>
</g>
</g>
<defs>
<clipPath id="clip0_324_968">
<rect width="25.8498" height="25.8498" fill="white" transform="translate(11.0786 11.9894)"/>
</clipPath>
<clipPath id="clip1_324_968">
<rect width="27.327" height="28.8041" fill="white" transform="translate(11.0786 11.9894)"/>
</clipPath>
</defs>
</svg>
