<svg width="26" height="26" viewBox="0 0 26 26" fill="none" xmlns="http://www.w3.org/2000/svg">
<path d="M23.3631 5.94463C19.5969 0.13848 11.9077 -1.58767 5.94463 2.02156C0.138472 5.63079 -1.7446 13.4769 2.02155 19.2831L2.3354 19.7539L1.08001 24.4616L5.7877 23.2062L6.25847 23.52C8.29847 24.6185 10.4954 25.2462 12.6923 25.2462C15.0462 25.2462 17.4 24.6185 19.44 23.3631C25.2462 19.5969 26.9723 11.9077 23.3631 5.94463V5.94463ZM20.0677 18.0277C19.44 18.9692 18.6554 19.5969 17.5569 19.7539C16.9292 19.7539 16.1446 20.0677 13.0062 18.8123C10.3385 17.5569 8.14155 15.5169 6.57232 13.1631C5.63078 12.0646 5.16001 10.6523 5.00309 9.24002C5.00309 7.98463 5.47386 6.88617 6.25847 6.10156C6.57232 5.78771 6.88617 5.63079 7.20001 5.63079H7.98463C8.29847 5.63079 8.61232 5.63079 8.76924 6.25848C9.08309 7.0431 9.8677 8.92617 9.8677 9.0831C10.0246 9.24002 10.0246 9.55387 9.8677 9.71079C10.0246 10.0246 9.8677 10.3385 9.71078 10.4954C9.55386 10.6523 9.39693 10.9662 9.24001 11.1231C8.92617 11.28 8.76924 11.5939 8.92616 11.9077C9.55386 12.8492 10.3385 13.7908 11.1231 14.5754C12.0646 15.36 13.0062 15.9877 14.1046 16.4585C14.4185 16.6154 14.7323 16.6154 14.8892 16.3016C15.0462 15.9877 15.8308 15.2031 16.1446 14.8892C16.4585 14.5754 16.6154 14.5754 16.9292 14.7323L19.44 15.9877C19.7539 16.1446 20.0677 16.3016 20.2246 16.4585C20.3816 16.9292 20.3815 17.5569 20.0677 18.0277V18.0277Z" fill="#151814"/>
</svg>
